<?xml version="1.0" encoding="utf-8"?>
<!-- Generator: Adobe Illustrator 23.0.1, SVG Export Plug-In . SVG Version: 6.00 Build 0)  -->
<svg version="1.1" id="Layer_1" xmlns="http://www.w3.org/2000/svg" xmlns:xlink="http://www.w3.org/1999/xlink" x="0px" y="0px"
	 viewBox="0 0 688.27 179.11" style="enable-background:new 0 0 688.27 179.11;" xml:space="preserve">
<style type="text/css">
	.st0{fill:#629ED5;}
	.st1{fill-rule:evenodd;clip-rule:evenodd;fill:#629ED5;}
</style>
<g>
	<g>
		<g>
			
				<ellipse transform="matrix(0.2242 -0.9745 0.9745 0.2242 -16.4927 105.6209)" class="st0" cx="58.09" cy="63.17" rx="30.15" ry="30.15"/>
			<path class="st0" d="M58.09,63.17"/>
		</g>
		<g>
			
				<ellipse transform="matrix(0.7425 -0.6699 0.6699 0.7425 -10.0451 100.2112)" class="st0" cx="125.31" cy="63.17" rx="30.15" ry="30.15"/>
			<path class="st0" d="M125.31,63.17"/>
		</g>
		<g>
			<circle class="st0" cx="58.09" cy="131.74" r="30.15"/>
			<path class="st0" d="M58.09,131.74"/>
		</g>
		<g>
			<polygon class="st0" points="166.15,33.02 189.79,33.02 189.79,93.32 166.15,93.32 166.15,33.02 			"/>
			<path class="st0" d="M177.97,63.17"/>
		</g>
		<g>
			<polygon class="st0" points="194.99,33.02 218.63,33.02 218.63,93.32 194.99,93.32 194.99,33.02 			"/>
			<path class="st0" d="M206.81,63.17"/>
		</g>
		<g>
			<polygon class="st0" points="223.83,33.02 247.47,33.02 247.47,93.32 223.83,93.32 223.83,33.02 			"/>
			<path class="st0" d="M235.65,63.17"/>
		</g>
		<g>
			<polygon class="st0" points="252.68,33.02 276.31,33.02 276.31,93.32 252.68,93.32 252.68,33.02 			"/>
			<path class="st0" d="M264.5,63.17"/>
		</g>
	</g>
	<g>
		<polygon class="st1" points="342.09,52.72 342.09,93.37 350.72,93.37 350.72,32.96 344.68,32.96 321.38,69.81 298.07,32.96 
			292.03,32.96 292.03,93.37 300.66,93.37 300.66,52.72 318.36,80.42 324.4,80.42 		"/>
		<path class="st1" d="M361.5,63.16c0,17.61,13.12,31.07,30.2,31.07c17.09,0,30.21-13.46,30.21-31.07
			c0-17.61-13.12-31.07-30.21-31.07C374.62,32.09,361.5,45.56,361.5,63.16z M370.13,63.16c0-13.03,9.24-22.87,21.58-22.87
			c12.34,0,21.58,9.84,21.58,22.87c0,13.12-9.23,22.87-21.58,22.87C379.37,86.03,370.13,76.28,370.13,63.16z"/>
		<path class="st1" d="M441.33,85.17V64.89h13.12c5.44,0,8.03,1.21,9.93,3.11c1.73,1.81,2.85,4.23,2.85,6.99s-1.12,5.26-2.85,7.08
			c-1.9,1.9-4.49,3.11-9.93,3.11H441.33z M441.33,56.69V41.15h10.36c4.83,0,6.9,0.95,8.29,2.5c1.29,1.38,2.07,3.19,2.07,5.26
			c0,2.07-0.78,3.88-2.07,5.26c-1.38,1.55-3.45,2.5-8.29,2.5H441.33z M456,93.37c6.13,0,10.1-1.47,13.2-4.06
			c4.06-3.28,6.64-8.37,6.64-13.98c0-6.82-4.23-13.03-9.92-15.88c2.85-2.67,4.75-6.64,4.75-10.79c0-4.49-1.9-8.63-5.01-11.48
			c-2.85-2.59-6.56-4.23-12.43-4.23H432.7v60.41H456z"/>
		<rect x="486.64" y="32.96" class="st1" width="8.63" height="60.41"/>
		<polygon class="st1" points="519.43,32.96 510.8,32.96 510.8,93.37 546.19,93.37 546.19,85.17 519.43,85.17 		"/>
		<rect x="555.68" y="32.96" class="st1" width="8.63" height="60.41"/>
		<polygon class="st1" points="573.37,41.15 589.77,41.15 589.77,93.37 598.4,93.37 598.4,41.15 614.8,41.15 614.8,32.96 
			573.37,32.96 		"/>
		<polygon class="st1" points="667.01,32.96 657.34,32.96 641.98,57.21 626.62,32.96 616.95,32.96 637.67,65.75 637.67,93.37 
			646.3,93.37 646.3,65.75 		"/>
	</g>
</g>
</svg>
