<?xml version="1.0" encoding="utf-8"?>
<!-- Generator: Adobe Illustrator 23.0.1, SVG Export Plug-In . SVG Version: 6.00 Build 0)  -->
<svg version="1.1" xmlns="http://www.w3.org/2000/svg" xmlns:xlink="http://www.w3.org/1999/xlink" x="0px" y="0px"
	 viewBox="0 0 841.89 595.28" style="enable-background:new 0 0 841.89 595.28;" xml:space="preserve">
<style type="text/css">
	.st0{fill:#B8D532;}
	.st1{clip-path:url(#SVGID_2_);}
	.st2{fill:#92CA41;}
	.st3{fill:#02663D;}
</style>
<g id="logo">
	<g>
		<path class="st0" d="M453.54,195.57v-15.94c0,0,16.53-69.06,85-72.01c0,0,70.83-2.95,143.44,53.13c0,0-41.91,3.54-72.61,34.83
			l-46.04,47.81c0,0-20.07-2.36-24.79,3.54c0,0-10.04-7.67-18.89-6.49c0,0-15.94-21.84-41.32-10.03l-10.63-24.2
			c0,0,25.42-54.39,94.45-64.93C562.15,141.27,504.3,131.23,453.54,195.57z"/>
	</g>
	<g>
		<path class="st0" d="M298.88,253.42c0,0,12.99-16.53,34.24-6.49c0,0,15.35-13.58,34.24-10.03c0,0,10.62-14.76,23.02-16.53
			c0,0,2.36-10.03,5.9-11.81c0,0,0.59-54.36-54.9-100.97c0,0-39.55-27.13-55.49-30.67c0,0,31.88,0,61.39,20.66
			c0,0,53.72,31.28,68.47,92.68v3.54c0,0,17.12-38.37-8.26-97.4c0,0-21.84-50.77-98.58-61.98c0,0-63.16-15.94-185.94,27.74
			c0,0,62.57,27.15,80.28,63.75c0,0,51.35,92.09,60.21,100.94C263.47,226.86,279.41,245.75,298.88,253.42z"/>
	</g>
	<g>
		<defs>
			
				<ellipse id="SVGID_1_" transform="matrix(0.7071 -0.7071 0.7071 0.7071 -32.1001 368.7676)" cx="429.09" cy="223.13" rx="137.3" ry="137.3"/>
		</defs>
		<clipPath id="SVGID_2_">
			<use xlink:href="#SVGID_1_"  style="overflow:visible;"/>
		</clipPath>
		<g class="st1">
			<path class="st2" d="M399.82,219.77c0,0,21.58-0.89,32.46,15.64c0,0,21.93-12.89,35.12-9.44c0,0-8.85-24.79-33.35-27.45
				C434.06,198.52,405.14,198.52,399.82,219.77z"/>
			<path class="st2" d="M300.36,270.83c0,0-0.3-19.77,21.84-17.41c0,0,9.45,1.57,15.35,6.54c0,0,10.62-21.89,33.65-10.38
				c0,0,10.33-20.96,28.63-21.84c0,0,20.07-2.95,32.17,21.55l1.62,2.07c0,0,12.25-28.92,43.83-12.69l1.77,1.18
				c0,0,22.14-13.69,35.42,9.39v1.83c0,0,15.34-5.9,21.84,6.2c0,0,18.59-8.56,26.56-3.84c0,0,4.43,5.31-5.9,24.79
				c0,0-77.03-2.06-105.96,20.66c0,0-35.12-18.01-61.1-20.07C390.08,278.8,326.63,270.54,300.36,270.83z"/>
			<path class="st2" d="M460.62,303c0,0,32.47-16.82,91.5-16.23c0,0-15.94,34.83-54.9,57.85C497.22,344.62,483.87,313.51,460.62,303
				z"/>
			<path class="st2" d="M323.38,313.04l-5.02-6.79c0,0,50.76-2.66,52.24,38.37v3.25l-26.12-15.35
				C344.48,332.52,346.99,317.17,323.38,313.04z"/>
			<path class="st2" d="M315.71,301.53c0,0,28.92,1.48,46.34,8.85c0,0,24.2,10.92,24.2,25.09c0,0,0.3,14.76-1.48,18.59l25.09,4.72
				c0,0,6.2-30.71-17.41-43.1c0,0-25.97-18.88-76.74-18.59l-1.77,0L315.71,301.53z"/>
			<path class="st2" d="M310.1,292.68c0,0,0.42,0.02,1.19,0.05c7.95,0.37,53.53,2.75,69.94,10.28c0,0,34.9,10.92,40.18,29.51
				c0,0,3.51,17.42,1.44,28.34H450c0,0,3.54-28.35-24.2-45.16c0,0-30.99-20.36-71.43-23.02c0,0-43.98-3.84-45.75-3.54L310.1,292.68z
				"/>
			<path class="st2" d="M306.26,284.41c0,0,59.47,2.66,73.12,7.08c0,0,29.88,7.08,37.56,10.04c0,0,28.92,10.62,38.96,26.41
				c0,0,9.15,21.1,7.97,28.78l23.61-8.85c0,0-5.61-24.86-37.34-41.65c0,0-24.5-16.2-87.88-23.28l-58.07-3.54L306.26,284.41z"/>
		</g>
	</g>
	<g>
		<path class="st3" d="M392.45,63.78c5.37,5.03,9.62,9.92,12.92,14.23c7.72-1.26,15.65-1.92,23.72-1.92
			c31.81,0,61.29,10.16,85.37,27.39c7.52-2.19,15.46-3.49,23.75-3.85c0.08,0,0.85-0.03,2.2-0.03c2.47,0,7.01,0.1,13.22,0.66
			c-31.76-32.18-75.86-52.17-124.54-52.17c-16.49,0-32.45,2.29-47.59,6.58C385.71,57.78,389.34,60.87,392.45,63.78z"/>
		<path class="st3" d="M574.79,243.03c-9.74,71.71-71.36,127.15-145.7,127.15c-69.85,0-128.47-48.95-143.38-114.35
			c-15.24-8.91-26.56-21.72-28.18-23.61c-0.88-0.94-2.04-2.44-3.42-4.37c2.51,94.35,80.04,170.33,174.98,170.33
			c96.52,0,175.05-78.53,175.05-175.05c0-3.45-0.11-6.87-0.31-10.27L574.79,243.03z"/>
	</g>
</g>
<g id="letras">
	<polygon class="st3" points="71.03,558.16 63.06,558.16 63.06,465.63 77.23,465.63 99.81,545.32 120.62,465.63 136.11,465.63 
		136.11,558.16 127.26,558.16 126.37,477.58 102.91,558.16 94.05,558.16 71.47,476.25 	"/>
	<polygon class="st3" points="143.19,465.63 152.93,465.63 172.86,509.02 191.45,465.63 201.63,465.63 176.84,518.76 177.28,558.16 
		167.99,558.16 167.99,519.2 	"/>
	<polygon class="st0" points="226.42,558.16 226.42,465.63 277.34,465.63 277.34,480.24 244.13,481.13 245.02,502.82 277.34,502.82 
		277.34,517.87 244.58,518.31 244.13,558.16 	"/>
	<path class="st0" d="M322.94,465.63h-23.91l-23.91,92.53h18.15l4.87-19.92h25.23l3.98,19.92h19.92L322.94,465.63z M302.13,520.97
		l9.08-37.19l8.19,37.19H302.13z"/>
	<path class="st0" d="M399.53,511.89c12.4-2.43,13.28-19.7,13.28-19.7c2.21-25.24-22.14-26.56-22.14-26.56h-36.75v92.53h17.71
		l0.44-39.4c23.02-3.1,21.25,16.38,21.25,16.38v23.02h19.62v-20.81C412.65,516.1,399.53,511.89,399.53,511.89z M389.79,502.38
		c0,0-3.54,2.66-17.27,2.21v-25.24c0,0,18.59-2.65,20.81,7.97C393.33,487.32,395.99,499.28,389.79,502.38z"/>
	<polygon class="st0" points="428.46,558.16 428.46,465.63 455.31,465.63 467.71,532.04 479.66,465.63 508.88,465.63 508.88,558.16 
		491.61,558.16 491.17,483.78 474.79,558.16 461.07,558.16 444.24,483.78 443.8,558.16 	"/>
	<rect x="526.15" y="544.88" class="st3" width="10.18" height="13.28"/>
	<path class="st3" d="M602.29,491.6h7.38c0,0,3.83-21.55-18.89-27.45c0,0-27.45-6.79-35.77,24.2c0,0-4.37,24.51,1.83,48.12
		c0,0,10.92,29.81,34.53,21.69c0,0,19.38-7.82,18.54-30.84h-6.74c0,0,0.59,26.27-22.73,24.2c0,0-14.46,0.59-18-24.79l-0.59-30.7
		c0,0,3.53-23.97,21.54-25.38C583.4,470.65,601.11,471.53,602.29,491.6z"/>
	<path class="st3" d="M672.13,475.21c-25.85-29.65-45.99,4.35-45.99,4.35c-8.86,18.89-4.36,41.26-4.36,41.26
		c1.77,26.27,11.81,32.47,11.81,32.47c23.61,21.84,41.91-10.92,41.91-10.92C687.89,500.16,672.13,475.21,672.13,475.21z
		 M669.3,538.31c0,0-13.63,27.6-31.22,9.2c0,0-7.48-5.22-8.79-27.35c0,0-3.35-18.84,3.25-34.76c0,0,15-28.64,34.26-3.67
		C666.79,481.74,678.53,502.76,669.3,538.31z"/>
	<polygon class="st3" points="704.12,559.56 694.38,559.56 694.38,465.63 709.14,465.63 731.57,544.88 753.11,465.63 767.28,465.63 
		768.46,558.16 758.43,558.16 758.72,476.25 736,559.56 727.43,559.56 703.53,476.25 	"/>
</g>
</svg>
