<?xml version="1.0" encoding="utf-8"?>
<!-- Generator: Adobe Illustrator 23.0.1, SVG Export Plug-In . SVG Version: 6.00 Build 0)  -->
<svg version="1.1" id="Layer_1" xmlns="http://www.w3.org/2000/svg" xmlns:xlink="http://www.w3.org/1999/xlink" x="0px" y="0px"
	 viewBox="0 0 486.92 155.97" style="enable-background:new 0 0 486.92 155.97;" xml:space="preserve">
<style type="text/css">
	.st0{fill-rule:evenodd;clip-rule:evenodd;fill:#1E6BAD;}
	.st1{fill-rule:evenodd;clip-rule:evenodd;}
</style>
<path class="st0" d="M58.11,41.04c6.93-2.17,14.02-2.32,20.64-0.77c0.37,0.19,0.62,0.42,0.63,0.69c0.15,4.49-21.08,8.61-25.26,8.89
	c4.2,0.42,29.33-2.48,29.99-7.92c5.01,1.95,9.59,4.9,13.45,8.69c2.7,14.29-40.66,24.68-51.09,23.29
	c12.45,3.33,49.59-0.72,55.89-17.57c2.16,3.13,3.89,6.63,5.09,10.44c0.27,0.87,0.51,1.74,0.72,2.61
	c-0.48,15.52-36.94,26.52-49,24.96c14.26,3.96,42.48-2.9,50.07-16.8c0.11,4.66-0.61,9.24-2.07,13.56
	c-2.37,7.32-23.38,20.98-35.35,19.27c8.35,2.48,20.98-1.04,29.62-8.33c-4.77,6.44-11.54,11.49-19.75,14.07
	c-20.67,6.5-42.83-5.06-49.33-25.74C25.87,69.7,37.44,47.54,58.11,41.04"/>
<g>
	<g>
		<path class="st1" d="M156.5,79.03h28.12c4.58-0.04,7.35-0.11,8.29-0.19c3.3-0.25,5.41-1.44,6.31-3.6
			c0.57-1.33,0.87-3.72,0.87-7.18c0-3.24-0.33-5.53-0.98-6.82c-0.96-1.95-3.01-3.04-6.11-3.22c-0.96-0.08-3.77-0.16-8.39-0.25H156.5
			 M133.99,120.17V37h50.6c10.01,0,16.47,0.23,19.36,0.66c7.94,1.19,13.2,4.37,15.81,9.57c1.94,3.91,2.92,10.86,2.92,20.9
			c0,10.28-1.07,17.47-3.2,21.63c-2.01,3.89-5.36,6.59-10.01,8.09c-3.42,1.1-8.02,1.73-13.8,1.89c-2.61,0.04-6.22,0.07-10.88,0.07
			H156.5v20.36H133.99z"/>
		<path class="st1" d="M343.57,37.43h31.6L393.2,94.3l20.18-56.87h31.39l12.96,71.07c0.55,3.02,0.78,5.1,3.76,6.94
			c1.37,0.83,3.02,1.25,4.93,1.25c0.06,0.99,0.18,1.98,0.35,2.97h-17.71h-14.48l-7.87-58.75l-19.26,58.75h-29.78l-16.79-58.54
			l-10.91,58.54h-24.91"/>
		<path class="st1" d="M250.52,98.8h31.54c6.4,0,11.18-0.29,14.34-0.86c3.52-0.65,5.73-2.85,6.64-6.56
			c0.69-2.7,1.04-6.96,1.04-12.78c0-6.2-0.37-10.77-1.1-13.68c-0.86-3.65-2.86-5.85-5.99-6.62c-2.47-0.65-7.51-0.98-15.14-0.98
			h-31.34 M228.18,113.22V36.4h53.68c11.66,0,19.19,0.23,22.6,0.67c6.62,0.86,11.49,2.81,14.62,5.85c3.33,3.27,5.52,8.55,6.59,15.81
			c0.5,3.48,0.76,9.55,0.76,18.25c0,11.08-0.43,18.79-1.3,23.12c-1.21,5.89-3.16,10.22-5.9,13.01c-1.84,1.93-4.09,3.37-6.75,4.36
			c-2.66,0.98-6.23,1.7-10.73,2.16c-3.57,0.36-10.17,0.55-19.83,0.55c-17.91,0-35.82,0-53.73,0V113.22z"/>
	</g>
</g>
</svg>
