<?xml version="1.0" encoding="utf-8"?>
<!-- Generator: Adobe Illustrator 23.0.1, SVG Export Plug-In . SVG Version: 6.00 Build 0)  -->
<svg version="1.1" id="Layer_1" xmlns="http://www.w3.org/2000/svg" xmlns:xlink="http://www.w3.org/1999/xlink" x="0px" y="0px"
	 viewBox="0 0 416 264" style="enable-background:new 0 0 416 264;" xml:space="preserve">
<style type="text/css">
	.st0{fill:#B4975A;}
	.st1{fill:#453A24;}
</style>
<g>
	<path class="st0" d="M261.34,91.64c-0.27,1.14-0.74,2.07-1.31,2.7c-0.37,0.4-0.79,0.95-1.22,1.29c-0.42,0.29-0.85,0.57-1.28,0.84
		c-0.87,0.53-1.76,0.98-2.64,1.38c-2.72,1.22-5.33,1.85-7.55,2.29c-0.23,0.05-0.5,0.11-0.78,0.18c0.13-0.59,0.31-1.16,0.57-1.72
		c0.52-1.13,1.34-2.26,2.44-3.42c0.3-0.33,0.63-0.65,0.96-0.96c0.17-0.14,0.31-0.16,0.47-0.25c0.16-0.08,0.33-0.22,0.5-0.35
		c1.1-0.91,2.36-2.08,3.63-3.39c1.03-1.07,2.05-2.25,2.94-3.58c0.72-1.03,1.37-2.14,1.92-3.37c0.71,1.32,1.18,2.72,1.42,4.08
		C261.69,88.89,261.65,90.38,261.34,91.64 M261.3,96.27c0,0.18,0,0.37-0.01,0.54c-0.01,0.36-0.05,0.72-0.08,1.08
		c-0.08,0.71-0.24,1.41-0.42,2.08c-0.44,1.51-1.17,2.87-2.01,3.9c-0.77,0.9-1.6,1.51-2.36,1.77c-1.05,0.38-2.12,0.62-3.18,0.76
		c-1.58,0.21-3.1,0.2-4.53,0.08c-2.29-0.24-4.29-0.82-5.99-1.42l-0.74-0.22c0.37-0.45,0.78-0.83,1.21-1.17
		c0.91-0.7,2.03-1.21,3.45-1.72c0.76-0.27,1.62-0.54,2.46-0.75c2.11-0.54,4.65-1.22,7.3-2.46c0.83-0.39,1.67-0.83,2.49-1.33
		c0.41-0.25,0.82-0.52,1.23-0.8l0.6-0.43l0.29-0.22c0.1-0.1,0.21-0.2,0.3-0.33V96V96.27z M254.75,111.04
		c-1.12,1.25-2.46,2.21-3.73,2.73c-1.01,0.42-1.95,0.59-2.71,0.52c-0.09-0.01-0.19-0.02-0.27-0.03c-2.15-0.33-4.12-1.14-5.78-2.12
		c-1.06-0.62-2-1.3-2.85-2c-0.33-0.27-0.65-0.54-0.95-0.8c-0.83-0.74-1.57-1.5-2.27-2.19c-0.16-0.16-0.36-0.35-0.57-0.56
		c0.57-0.22,1.15-0.37,1.73-0.46c0.35-0.06,0.72-0.08,1.09-0.09c0.88-0.02,1.81,0.07,2.83,0.25c0.8,0.14,1.65,0.34,2.49,0.56
		c1.4,0.38,3.02,0.79,4.83,1.03c1.48,0.19,3.06,0.25,4.68,0.07c1.27-0.12,2.58-0.39,3.88-0.81
		C256.58,108.57,255.75,109.92,254.75,111.04 M244.02,118.13c-0.88,0.3-1.76,0.49-2.6,0.57c-0.68,0.07-1.32,0.07-1.91,0
		c-1.2-0.12-2.17-0.49-2.8-0.97c-0.88-0.67-1.67-1.42-2.38-2.22c-1.04-1.19-1.89-2.45-2.62-3.69c-1.14-2.01-1.93-3.96-2.65-5.7
		c-0.08-0.21-0.21-0.48-0.34-0.74c0.64,0.03,1.26,0.13,1.87,0.3c1.25,0.35,2.46,0.98,3.72,1.86c0.69,0.49,1.39,1.04,2.05,1.63
		l1.37,1.21c0.65,0.57,1.37,1.16,2.15,1.74c0.8,0.6,1.67,1.18,2.61,1.71c1.52,0.85,3.26,1.56,5.19,1.94l0.37,0.08
		C246.82,116.87,245.43,117.64,244.02,118.13 M231.46,119.39c-1.61-0.2-3.06-0.71-4.17-1.38c-1-0.59-1.71-1.31-2.08-2
		c-1-1.85-1.62-3.85-1.98-5.75c-0.56-2.92-0.6-5.6-0.69-7.94c0-0.24-0.03-0.53-0.06-0.83c0.61,0.28,1.16,0.61,1.69,1.01
		c1.08,0.81,2.01,1.88,2.87,3.2c0.47,0.73,0.91,1.54,1.29,2.34c0.64,1.35,1.32,2.89,2.2,4.49c0.71,1.31,1.55,2.62,2.59,3.87
		c0.8,0.97,1.72,1.91,2.78,2.76C234.4,119.48,232.88,119.56,231.46,119.39 M247.04,85.31c-0.15-0.35-0.26-0.69-0.38-1.05
		c-0.25-0.86-0.4-1.79-0.47-2.82c-0.06-0.81-0.09-1.68-0.07-2.54c0.02-1.45,0-3.11-0.24-4.93c-0.17-1.48-0.53-3.02-1.1-4.55
		c-0.43-1.19-0.99-2.38-1.7-3.54c1.5,0.19,3,0.64,4.31,1.32c1.49,0.77,2.75,1.82,3.59,2.92c0.67,0.87,1.07,1.74,1.21,2.49
		c0.01,0.1,0.04,0.19,0.04,0.29c0.22,2.16-0.07,4.27-0.61,6.13c-0.33,1.17-0.75,2.25-1.22,3.26c-0.17,0.39-0.35,0.76-0.53,1.12
		c-0.51,1-1.03,1.93-1.51,2.8c-0.11,0.2-0.24,0.46-0.37,0.73C247.59,86.4,247.28,85.87,247.04,85.31 M244.66,80.35l-0.04,0.77
		c-0.53-0.25-0.99-0.54-1.42-0.87c-0.9-0.69-1.7-1.65-2.56-2.91c-0.47-0.69-0.96-1.46-1.39-2.23c-1.05-1.93-2.31-4.26-4.03-6.6
		c-1.07-1.48-2.73-2.9-4.67-3.93c0.81-0.27,1.67-0.48,2.53-0.57c0.44-0.05,0.87-0.07,1.31-0.08l0.65,0.01l0.51,0.03
		c1.51,0.12,2.93,0.52,4.06,1.12c1.02,0.53,1.79,1.19,2.21,1.87c0.59,0.91,1.08,1.89,1.49,2.89c0.57,1.46,0.96,2.95,1.2,4.37
		C244.86,76.48,244.82,78.56,244.66,80.35 M237.13,77.61c-0.65-0.13-1.33-0.34-2.02-0.63c-0.17-0.07-0.35-0.15-0.52-0.24l-0.27-0.12
		c-0.09-0.05-0.17-0.08-0.21-0.14l-0.72-0.55c-0.56-0.43-1.24-0.91-1.93-1.4c-1.15-0.82-2.57-1.71-4.23-2.5
		c-1.33-0.66-2.79-1.23-4.34-1.64c-1.21-0.35-2.46-0.61-3.74-0.77c0.96-1.04,2.1-1.94,3.33-2.62c1.39-0.75,2.91-1.23,4.3-1.34
		c1.23-0.1,2.32,0.09,3.06,0.47c2,0.99,3.67,2.46,4.81,4.03c1.72,2.43,2.96,4.82,3.98,6.9c0.11,0.22,0.25,0.46,0.38,0.72
		C238.38,77.8,237.76,77.74,237.13,77.61 M231.06,77.7c-1.06,0.36-2.43,0.56-4.05,0.61c-0.89,0.03-1.84,0-2.74-0.11
		c-0.6-0.07-1.24-0.16-1.87-0.25l-2.79-0.4c-0.98-0.14-2.01-0.28-3.07-0.39c-1.67-0.18-3.43-0.29-5.21-0.24l-0.35,0.01
		c0.67-1.13,1.47-2.16,2.38-3.02c0.56-0.53,1.16-1,1.77-1.4c0.5-0.32,1-0.58,1.49-0.79c1-0.41,1.93-0.58,2.69-0.49
		c1.05,0.12,2.1,0.31,3.12,0.58c1.51,0.41,2.95,0.93,4.25,1.51c2.1,0.96,3.87,2.1,5.2,3.24l0.56,0.48
		C232.02,77.3,231.57,77.52,231.06,77.7 M224.88,81.45c-0.35,0.28-0.72,0.54-1.11,0.8c-0.94,0.59-2.02,1.09-3.2,1.46
		c-0.92,0.28-1.91,0.49-2.84,0.58c-1.57,0.14-3.3,0.16-5.14,0.18c-1.49-0.01-3.02,0-4.54,0.08c-1.21,0.05-2.43,0.14-3.63,0.29
		c0.51-1.16,1.16-2.23,1.89-3.15c0.84-1.04,1.81-1.9,2.78-2.49c0.77-0.45,1.53-0.73,2.21-0.82c0.09-0.01,0.17-0.01,0.26-0.02
		c1.97-0.1,3.99,0.03,5.91,0.25c1.21,0.14,2.37,0.31,3.5,0.49l1.26,0.2l3.27,0.53c0.24,0.04,0.55,0.07,0.85,0.09
		C225.93,80.48,225.44,80.98,224.88,81.45 M218.77,87.51c-1.06,1.24-2.48,2.29-4.12,3.06c-0.9,0.42-1.87,0.76-2.81,0.95
		c-2.32,0.5-4.97,0.67-7.8,0.92c-1.77,0.16-3.59,0.33-5.37,0.56c0.42-1.11,0.95-2.15,1.59-3.1c0.72-1.05,1.61-1.99,2.49-2.62
		c0.8-0.57,1.62-0.93,2.35-1.04c1.01-0.14,2.02-0.23,3.05-0.29c1.51-0.07,3.02-0.08,4.48-0.11c2.32-0.01,4.52,0.02,6.58-0.15
		c0.26-0.03,0.57-0.07,0.9-0.12C219.74,86.27,219.29,86.92,218.77,87.51 M213.15,94.69c-0.99,1.37-2.33,2.58-3.98,3.53
		c-0.91,0.52-1.89,0.93-2.83,1.19c-1.6,0.44-3.35,0.67-5.18,0.8c-1.49,0.07-2.99,0.1-4.46,0.07c-1.15-0.03-2.3-0.07-3.4-0.15
		c0.44-0.93,0.97-1.79,1.57-2.6c0.68-0.87,1.48-1.65,2.32-2.21c0.75-0.5,1.52-0.84,2.22-0.95c1.87-0.27,3.86-0.46,5.78-0.62
		c2.95-0.26,5.7-0.42,8.24-0.95c0.27-0.05,0.57-0.14,0.9-0.24C214.03,93.32,213.64,94.03,213.15,94.69 M207.65,102.66
		c-1.09,1.53-2.66,2.9-4.5,3.83c-1.02,0.51-2.11,0.86-3.12,1.02c-0.67,0.1-1.36,0.16-2.05,0.17c-0.96,0.01-1.93-0.06-2.9-0.2
		c-1-0.15-1.98-0.37-2.95-0.68c-1.54-0.47-3-1.12-4.31-1.85l-0.24-0.16c0.59-0.62,1.19-1.17,1.83-1.63c0.4-0.31,0.83-0.56,1.26-0.79
		c0.35-0.18,0.72-0.35,1.08-0.48c0.74-0.27,1.49-0.41,2.16-0.37c0.94,0.05,1.91,0.09,2.91,0.12c1.47,0.05,2.96,0.05,4.42-0.03
		c2.36-0.1,4.63-0.39,6.74-0.97c0.27-0.07,0.59-0.19,0.93-0.32C208.59,101.12,208.18,101.91,207.65,102.66 M200.69,111
		c-0.46,0.44-0.98,0.85-1.53,1.23c-1.3,0.89-2.84,1.55-4.42,1.84c-1.24,0.23-2.48,0.22-3.54,0.01c-1.78-0.36-3.46-1.16-4.94-2.24
		c-1.19-0.89-2.24-1.92-3.16-2.99c-0.73-0.86-1.31-1.74-1.96-2.62c0.93-0.28,1.66-0.48,2.41-0.6c0.83-0.13,1.6-0.14,2.35-0.03
		c0.6,0.09,1.18,0.26,1.71,0.52l0.19,0.11c1.49,0.83,3.25,1.59,5.08,2.11c1.16,0.33,2.35,0.56,3.54,0.69
		c0.45,0.04,0.92,0.08,1.37,0.1c1.26,0.05,2.51-0.03,3.75-0.25c0.29-0.04,0.65-0.14,1.03-0.25
		C202.07,109.47,201.44,110.27,200.69,111 M190.12,117.67c-2.29,0.8-4.89,0.82-7.04,0.12c-0.6-0.19-1.16-0.44-1.68-0.71
		c-0.49-0.28-0.91-0.59-1.3-0.91c-1.93-1.63-3.56-3.83-4.86-6.25c-0.82-1.51-1.49-3.12-1.94-4.65c0.88-0.03,1.76,0.01,2.61,0.14
		c0.97,0.16,1.91,0.44,2.75,0.84c0.75,0.37,1.38,0.82,1.82,1.36c0.3,0.37,0.62,0.74,0.92,1.12c0.28,0.38,0.57,0.76,0.88,1.13
		c0.9,1.12,1.92,2.18,3.1,3.1c1.86,1.49,4.07,2.61,6.59,3.02c0.31,0.05,0.72,0.09,1.15,0.09
		C192.24,116.74,191.22,117.29,190.12,117.67 M177.91,119.01c-2.06-0.12-4.24-0.84-6.05-2.11c-1.01-0.69-1.88-1.56-2.5-2.44
		c-1.02-1.49-1.71-3.26-1.98-5.07c-0.21-1.47-0.17-2.93,0.09-4.28c0.2-1.06,0.53-2.06,0.93-2.98c0.66,0.38,1.18,0.68,1.65,1.05
		c0.52,0.41,0.99,0.91,1.42,1.51c0.38,0.53,0.72,1.12,0.91,1.74c0.5,1.65,1.26,3.42,2.19,5.1c1.42,2.57,3.2,4.9,5.4,6.69
		c0.23,0.18,0.53,0.38,0.85,0.59C179.87,118.99,178.91,119.07,177.91,119.01 M166.07,116.26c-2.27-1.03-4.34-3.04-5.36-5.29
		c-0.58-1.24-0.84-2.52-0.83-3.62c0-0.72,0.09-1.44,0.24-2.14c0.21-0.97,0.54-1.89,0.94-2.79c0.42-0.91,0.92-1.78,1.47-2.64
		c0.43-0.68,0.89-1.36,1.36-2.01c0.48-0.66,0.96-1.27,1.47-1.88l0.19-0.23c0.26,0.41,0.48,0.83,0.68,1.23
		c0.21,0.43,0.4,0.87,0.55,1.27c0.19,0.5,0.32,1,0.41,1.46c0.07,0.37,0.11,0.72,0.11,1.07c0.01,0.69-0.09,1.33-0.32,1.92
		c-0.31,0.8-0.59,1.68-0.79,2.6c-0.31,1.36-0.42,2.85-0.25,4.33c0.23,2.38,1.13,4.78,2.64,6.81c0.19,0.25,0.44,0.56,0.75,0.85
		C168.27,117.08,167.16,116.77,166.07,116.26 M158.74,104.6c-0.37,1.23-0.59,2.54-0.52,3.94c0.01,0.33,0.06,0.74,0.16,1.19
		c-0.87-0.8-1.6-1.75-2.17-2.77c-0.35-0.63-0.63-1.27-0.85-1.93c-0.51-1.57-0.65-3.12-0.51-4.6c0.1-1.19,0.4-2.34,0.84-3.28
		c0.75-1.6,1.85-3.06,3.14-4.35c1.06-1.04,2.23-1.96,3.41-2.74c0.94-0.61,1.9-1.12,2.86-1.55c0.16,0.84,0.27,1.67,0.27,2.46
		c0.01,0.9-0.09,1.79-0.32,2.6c-0.18,0.65-0.46,1.26-0.81,1.74l-0.14,0.18c-1.11,1.37-2.26,2.92-3.25,4.56
		c-0.63,1.03-1.2,2.1-1.65,3.21C159.02,103.7,158.88,104.14,158.74,104.6 M153.68,97.52c-0.12,0.27-0.24,0.63-0.35,1.03
		c-0.44-0.93-0.74-1.94-0.9-3.01c-0.34-2.21-0.01-4.62,0.96-6.67c0.55-1.14,1.26-2.14,2.06-2.88c1.95-1.83,4.61-2.94,7.26-3.25
		c0.85-0.09,1.67-0.12,2.48-0.08c0.83,0.03,1.7,0.03,2.5,0.08c-0.16,0.43-0.37,0.89-0.54,1.26c-0.13,0.31-0.26,0.62-0.43,0.89
		c-0.34,0.65-0.78,1.23-1.31,1.76c-0.48,0.47-1.01,0.88-1.6,1.16c-0.8,0.38-1.63,0.82-2.45,1.32c-1.23,0.74-2.43,1.64-3.5,2.66
		C156.11,93.4,154.64,95.3,153.68,97.52 M153.18,82.98c0.7-2.35,2.29-4.6,4.3-5.97c1.02-0.64,2.12-1.08,3.14-1.31
		c1.72-0.38,3.56-0.38,5.37-0.1c1.46,0.24,2.89,0.64,4.21,1.14c1.04,0.4,2.02,0.88,2.93,1.4c-0.6,0.63-1.18,1.18-1.81,1.65
		c-0.71,0.53-1.46,0.95-2.24,1.25c-0.71,0.25-1.42,0.39-2.08,0.37c-0.88-0.03-1.81-0.05-2.75-0.02c-0.95,0.02-1.86,0.03-2.81,0.18
		c-2.89,0.41-5.76,1.68-7.98,3.92c-0.23,0.22-0.48,0.53-0.76,0.88C152.68,85.26,152.83,84.12,153.18,82.98 M159.96,72.09
		c1.58-1.61,3.76-2.8,6-3.22c1.24-0.24,2.48-0.24,3.52-0.03c0.71,0.14,1.38,0.35,2.05,0.6c0.92,0.36,1.78,0.83,2.6,1.37
		c0.83,0.57,1.6,1.21,2.31,1.91c1.14,1.11,2.11,2.38,2.88,3.64l0.15,0.25c-0.81,0.27-1.53,0.48-2.25,0.59
		c-0.44,0.08-0.89,0.12-1.32,0.12c-0.34,0.01-0.7-0.01-1.04-0.06c-0.68-0.1-1.34-0.28-1.91-0.59c-0.78-0.43-1.63-0.84-2.53-1.21
		c-1.32-0.56-2.74-1-4.2-1.25c-2.33-0.45-4.76-0.49-7.13,0.09c-0.29,0.07-0.65,0.2-1.03,0.34
		C158.55,73.73,159.19,72.87,159.96,72.09 M170.41,65.3c0.65-0.24,1.36-0.42,2.07-0.54c1.68-0.27,3.43-0.17,5.01,0.31
		c1.22,0.37,2.33,0.97,3.16,1.65c0.7,0.57,1.35,1.24,1.89,1.97c0.52,0.72,0.99,1.5,1.43,2.3c0.7,1.31,1.34,2.66,1.95,4.01
		c0.47,1.05,0.92,2.12,1.3,3.15c-1,0-2.06-0.12-3.03-0.33c-1.08-0.25-2.11-0.65-2.84-1.13c-0.14-0.1-0.28-0.2-0.4-0.29l-0.3-0.3
		c-0.21-0.22-0.4-0.44-0.57-0.68l-0.11-0.18c-0.92-1.43-2.08-2.94-3.48-4.22c-0.88-0.82-1.85-1.56-2.89-2.18
		c-0.4-0.24-0.82-0.46-1.24-0.66c-1.15-0.56-2.43-0.97-3.76-1.17c-0.31-0.04-0.7-0.08-1.14-0.08
		C168.32,66.25,169.32,65.69,170.41,65.3 M181.57,63.91c0.54,0,1.22,0.06,1.72,0.15c2.12,0.34,3.91,1.19,5.52,2.47
		c0.88,0.7,1.67,1.53,2.28,2.4c0.4,0.57,0.88,0.93,1.2,1.83l0.12,0.4c0.1,0.25,0.24,0.81,0.31,1.05c0.15,0.48,0.25,0.96,0.34,1.46
		c0.16,0.98,0.22,1.97,0.2,2.97c-0.04,1.7-0.32,3.38-0.71,4.92c-0.78-0.42-1.45-0.84-2.03-1.29c0,0-0.65-0.5-1-0.92
		c-0.36-0.41-1.03-1.63-1.03-1.63c-0.11-0.24-0.22-0.49-0.31-0.74c-0.29-0.86-0.68-1.76-1.08-2.67c-0.58-1.35-1.21-2.72-1.9-4.01
		c-0.54-1.04-1.11-2.05-1.78-3c-0.34-0.48-0.69-0.94-1.13-1.38c-0.47-0.44-0.91-0.86-1.43-1.25c-0.25-0.2-0.59-0.41-0.97-0.62
		C180.45,63.96,181.01,63.91,181.57,63.91 M253.2,78.36c0.43-1.68,0.68-3.53,0.57-5.5l-0.03-0.38c1.29,0.93,2.4,2.1,3.21,3.34
		c0.51,0.78,0.91,1.57,1.2,2.36c0.23,0.62,0.39,1.23,0.48,1.82c0.18,1.17,0.07,2.17-0.23,2.91c-0.42,1-0.93,1.96-1.51,2.85
		c-0.87,1.31-1.82,2.48-2.79,3.55c-0.8,0.84-1.59,1.61-2.37,2.31c-0.79,0.7-1.54,1.36-2.28,1.86c-0.18,0.1-0.39,0.3-0.6,0.31
		c-0.09-0.08-0.14-0.39-0.2-0.65c-0.04-0.28-0.07-0.59-0.08-0.89c-0.05-1.31,0.18-2.76,0.67-4.26c0.27-0.82,0.62-1.68,1-2.47
		l0.8-1.65c0.39-0.8,0.78-1.63,1.14-2.53C252.58,80.4,252.92,79.41,253.2,78.36 M262.41,93.06c0.56-1.67,0.75-3.68,0.37-5.93
		c-0.34-2.03-1.18-4.22-2.61-6.24c-0.06-1.02-0.3-2.18-0.77-3.39c-0.32-0.81-0.74-1.64-1.28-2.47c-1.21-1.84-3.06-3.62-5.36-4.84
		c-0.94-1.52-2.58-3.11-4.75-4.22v-0.01c-1.98-1.02-4.38-1.63-6.82-1.61c-1.41-0.91-3.35-1.59-5.53-1.77
		c-0.42-0.03-1.2-0.06-1.85-0.03c-0.68,0.03-1.36,0.11-2.03,0.25c-1.35,0.27-2.66,0.74-3.85,1.4c-1.87-0.06-4.07,0.46-6.11,1.59
		c-1.84,0.99-3.54,2.47-4.88,4.29c-0.89,0.28-1.82,0.74-2.74,1.36c-0.63,0.41-1.23,0.9-1.81,1.45c-1.3,1.25-2.46,2.85-3.35,4.73
		c-1.29,0.65-2.63,1.73-3.8,3.19c-1.08,1.33-2.02,3.01-2.66,4.92c-1.21,0.72-2.45,1.9-3.46,3.4c-0.93,1.35-1.68,2.94-2.18,4.73
		c-1.12,0.65-2.21,1.63-3.15,2.84c-0.85,1.09-1.57,2.36-2.15,3.81c-0.65,0.2-1.28,0.46-1.88,0.79c-0.41,0.22-0.8,0.46-1.17,0.74
		h-0.01c-0.84,0.61-1.58,1.37-2.41,2.34c-0.93-0.21-1.82-0.26-2.84-0.1c-0.47,0.06-0.97,0.18-1.53,0.35l-0.42,0.13l-0.56,0.14
		c-0.38,0.11-0.78,0.23-1.17,0.36c-1.02-0.59-2.24-1-3.51-1.2h-0.01c-1.16-0.18-2.35-0.19-3.62-0.05c-0.51-0.8-1.03-1.43-1.62-1.91
		c-0.54-0.43-1.22-0.73-2.32-1.33c0.05-0.54,0.02-1.12-0.11-1.74c-0.08-0.42-0.21-0.86-0.39-1.35c-0.42-1.16-1.03-2.26-1.86-3.47
		c0.35-1,0.53-2.1,0.52-3.23v-0.01c-0.01-1.05-0.2-2.14-0.51-3.37c0.71-0.63,1.28-1.28,1.69-2.04c0.1-0.17,0.18-0.35,0.26-0.54
		c0.05-0.09,0.08-0.18,0.12-0.3c0.07-0.14,0.14-0.29,0.2-0.44c0.27-0.59,0.52-1.23,0.74-1.93c1.01-0.29,1.97-0.78,2.88-1.45
		c0.82-0.61,1.58-1.4,2.43-2.41c0.57,0.12,1.14,0.18,1.71,0.18c0.4,0,0.78-0.03,1.18-0.11c0.9-0.14,1.85-0.46,3.05-0.93
		c0.27,0.29,0.75,0.59,1.35,0.86c0.6,0.26,1.29,0.49,2.02,0.65c0.68,0.16,1.41,0.27,2.14,0.33c0.72,0.04,1.51,0.06,2-0.07l0.47,0.78
		c0.08,0.13,0.18,0.25,0.29,0.39c0.25,0.27,0.54,0.54,0.88,0.8v0.01c0.37,0.28,0.8,0.56,1.29,0.84c0.24,0.14,0.5,0.28,0.78,0.43
		c0.25,0.12,0.6,0.35,0.94,0.54l1.23-1.65c0-0.18,0.01-0.34,0.03-0.5c0.37-1.7,0.67-3.57,0.67-5.48c0-1.13-0.09-2.27-0.32-3.39
		c-0.12-0.56-0.21-1.16-0.42-1.72c-0.1-0.27-0.32-0.84-0.45-1.12c-0.07-0.14-0.15-0.28-0.24-0.42v0.01
		c-0.48-0.72-0.9-1.32-1.33-1.89c-0.18-0.25-0.44-0.55-0.72-0.84c0.43,0.04,0.86,0.11,1.34,0.23c0.47,0.12,0.97,0.27,1.64,0.57
		l-0.51-0.21l0.32,0.12l0.19,0.09l0.35,0.15c1.29,0.61,2.27,1.35,3.13,2.23c0.85,0.86,1.55,1.84,2.05,2.87
		c0.16,0.33,0.29,0.65,0.41,0.99l1.45-1.97c-0.07-0.04-0.13-0.09-0.2-0.12l-0.33-0.18c-0.18-0.1-0.37-0.18-0.56-0.26
		c-0.56-0.91-1.27-1.79-2.13-2.61c-0.89-0.81-1.86-1.53-3.24-2.19l-0.36-0.16l-0.22-0.09l-0.37-0.15l0.11,0.05
		c-0.38-0.16-0.7-0.27-1.02-0.35c-0.44-0.13-0.84-0.22-1.23-0.29c-0.78-0.14-1.51-0.18-2.23-0.15l-0.33,0.02
		c-0.18,0.01-0.36,0.03-0.53,0.05c-0.75-0.5-1.57-0.95-2.44-1.31c-0.88-0.36-1.8-0.64-2.91-0.82c-1.85-0.29-3.84-0.19-5.69,0.39
		l-0.37,0.13l-0.58,0.22c-1.47-0.28-3.11-0.31-4.76-0.02c-0.72,0.14-1.46,0.32-2.17,0.58c-1.75,0.63-3.4,1.67-4.72,3.04l-0.26,0.28
		c-0.11,0.14-0.23,0.28-0.35,0.41c-1.99,0.61-4.02,1.76-5.62,3.39c-1.24,1.23-2.23,2.75-2.84,4.4l-0.12,0.34l-0.2,0.61
		c-1.75,1.48-3.23,3.66-3.97,6.1c-0.55,1.84-0.69,3.81-0.37,5.67l0.07,0.37c0.04,0.2,0.09,0.4,0.14,0.6
		c-0.71,1.97-0.98,4.26-0.64,6.52c0.25,1.71,0.86,3.38,1.8,4.87l0.2,0.29c0.11,0.16,0.22,0.31,0.33,0.46
		c-0.01,1.31,0.19,2.75,0.72,4.26c0.23,0.66,0.53,1.34,0.89,2.01c0.9,1.65,2.3,3.26,4.06,4.43l0.36,0.23
		c0.18,0.1,0.36,0.2,0.54,0.29c1.19,2,3.21,3.86,5.53,4.94c1.77,0.83,3.68,1.23,5.51,1.18l0.36-0.01c0.2-0.01,0.39-0.03,0.58-0.05
		c1.75,0.99,3.82,1.63,5.9,1.76c0.79,0.05,1.59,0.03,2.36-0.07c0.4-0.04,0.78-0.12,1.17-0.21c0.46-0.09,0.9-0.19,1.36-0.34
		l0.36-0.12c0.2-0.07,0.39-0.14,0.57-0.22c2.06,0.44,4.54,0.38,6.92-0.45c1.79-0.61,3.48-1.64,4.8-3l0.26-0.27
		c0.14-0.14,0.27-0.31,0.4-0.46c1.39-0.4,2.78-1.06,4.03-1.95c0.55-0.39,1.08-0.82,1.57-1.29c1.2-1.16,2.17-2.53,2.81-4.04
		l0.12-0.32l0.16-0.44c1.54-0.95,2.96-2.23,4.04-3.75c0.82-1.16,1.45-2.45,1.82-3.85l0.07-0.29l0.1-0.46
		c1.35-0.92,2.56-2.02,3.52-3.36c0.73-1.02,1.32-2.17,1.71-3.46l0.07-0.27l0.11-0.44c1.36-0.75,2.62-1.72,3.66-2.91
		c0.78-0.91,1.44-1.94,1.93-3.13l0.1-0.25l0.13-0.39c0.95-0.37,1.86-0.82,2.7-1.36c0.37-0.24,0.73-0.5,1.06-0.78
		c0.84-0.68,1.55-1.48,2.15-2.44l0.11-0.19l0.17-0.3c1.27-0.09,2.43-0.26,3.33-0.57c0.7-0.24,1.25-0.58,1.82-1.1l0.12-0.11
		l0.19-0.19c0.19,0.14,0.29,0.29,0.51,0.42c0.3,0.14,0.6,0.27,0.9,0.39c0.6,0.24,1.2,0.42,1.79,0.55c0.91,0.19,1.83,0.22,2.84,0.1
		l0.2-0.03l0.34-0.05c0.7,0.95,1.35,1.76,2.12,2.36c0.6,0.46,1.28,0.82,2.18,1.15l0.19,0.07l0.31,0.1c0.08,0.78,0.2,1.51,0.41,2.25
		c0.1,0.32,0.21,0.64,0.35,0.96c0.34,0.78,0.84,1.57,1.54,2.4l0.15,0.17l0.22,0.24c-0.34,1.21-0.53,2.44-0.48,3.61
		c0.01,0.44,0.07,0.89,0.16,1.2c0.04,0.22,0.13,0.07,0.19,0.23c0.06,0.27,0.11,0.53,0.17,0.81l0.06,0.21l0.11,0.36
		c-0.84,0.97-1.55,1.93-2.01,2.94c-0.36,0.78-0.58,1.61-0.68,2.58l-0.03,0.2l-0.01,0.34c-1.09,0.4-2.01,0.82-2.81,1.42
		c-0.6,0.46-1.13,1.04-1.69,1.83l-0.11,0.16l-0.18,0.28c-0.78-0.12-1.52-0.2-2.26-0.18c-0.32,0.01-0.65,0.03-0.98,0.08
		c-0.81,0.13-1.63,0.39-2.56,0.84l-0.2,0.1l-0.28,0.15c-1-0.66-2.01-1.18-3.13-1.49c-0.86-0.24-1.79-0.35-2.88-0.32l-0.21,0.01
		l-0.37,0.03c-0.73-1.02-1.52-1.95-2.52-2.69c-0.73-0.56-1.58-1.01-2.62-1.38l-1.47,1.98c0.11,0.61,0.21,1.23,0.25,1.84
		c0.17,2.22,0.26,4.84,0.85,7.7c0.37,1.79,0.96,3.66,1.89,5.46c-1.47-0.28-2.87-0.78-4.08-1.47c-1.36-0.77-2.5-1.77-3.27-2.77
		c-0.69-0.91-1.08-1.83-1.18-2.61c-0.02-0.19-0.04-0.39-0.05-0.59l-1.83,2.47c0.42,0.25,0.87,0.48,1.33,0.7
		c0.87,1.42,2.32,2.87,4.32,3.99h0.01c1.81,1.03,4.06,1.76,6.5,1.91c1.35,1.01,3.3,1.85,5.64,2.14c2.12,0.26,4.56,0.05,6.94-0.82
		c1.02,0.22,2.21,0.29,3.52,0.12c0.88-0.1,1.79-0.29,2.73-0.63c2.09-0.71,4.27-2.04,6.01-3.95c1.71-0.52,3.65-1.68,5.3-3.52
		c1.51-1.67,2.75-3.89,3.32-6.34c1.24-1.21,2.38-3.04,3.02-5.25c0.29-1,0.48-2.08,0.55-3.2c0.02-0.28,0.03-0.55,0.03-0.84l0.03-0.56
		v-0.66C262.67,94.3,262.56,93.69,262.41,93.06"/>
	<path class="st1" d="M60.73,179.98c-2.84,0-6.27-1.13-8.46-2.57l1.61-5.28c2.02,1.47,4.66,2.43,7.03,2.43
		c2.05,0,2.84-0.96,2.84-2.19c0-1.31-0.65-2.2-4.49-3.74c-4.42-1.78-5.96-4.35-5.96-7.37c0-3.66,2.98-7.23,8.85-7.23
		c2.74,0,5.55,0.95,7.02,1.94l-1.47,5.21c-1.44-0.99-3.77-2.06-5.55-2.06c-2.13,0-2.99,1.01-2.99,2.02c0,1.65,1.27,2.19,4.43,3.53
		c4.69,1.99,6.1,4.25,6.1,7.48C69.68,176.18,66.76,179.98,60.73,179.98"/>
	<path class="st1" d="M93.04,179.98c-8.19,0-13.74-5.52-13.74-12.96c0-7.48,5.55-12.99,13.74-12.99c2.92,0,5.59,0.85,7.86,2.19
		l-1.79,4.94c-1.85-1.02-3.94-1.68-6-1.68c-4.7,0-7.61,2.89-7.61,7.55c0,4.66,2.92,7.54,7.61,7.54c2.05,0,4.39-0.69,6.27-1.85
		l1.75,4.94C98.94,179.09,95.92,179.98,93.04,179.98"/>
	<path class="st1" d="M122.92,159.24c-3.98,0-6.66,3.27-6.66,7.78c0,4.49,2.68,7.78,6.66,7.78c3.97,0,6.64-3.29,6.64-7.78
		C129.57,162.51,126.9,159.24,122.92,159.24 M122.81,179.98c-7.79,0-12.75-5.59-12.75-12.96c0-7.41,5.21-12.99,12.99-12.99
		c7.75,0,12.75,5.57,12.75,12.99C135.81,174.39,130.56,179.98,122.81,179.98"/>
	<path class="st1" d="M155.09,159.72c-0.75,0-1.27,0.03-2.16,0.14v7.16c0.83,0.04,1.2,0.07,1.75,0.07c3.09,0,4.63-1.34,4.63-3.77
		C159.31,161.3,157.97,159.72,155.09,159.72 M155.09,172.13c-0.81,0-1.37-0.04-2.16-0.07v7.51h-5.82v-24.89
		c2.56-0.27,4.89-0.42,6.99-0.42c7.27,0,11.18,3.88,11.18,8.95C165.28,168.4,161.74,172.13,155.09,172.13"/>
</g>
<polygon class="st1" points="175.58,179.57 175.58,154.44 191.48,154.44 191.48,159.79 181.4,159.79 181.4,164.28 190.59,164.28 
	190.59,169.35 181.4,169.35 181.4,174.26 191.48,174.26 191.48,179.57 "/>
<rect x="218.08" y="154.44" class="st0" width="1.93" height="25.13"/>
<polygon class="st0" points="251.29,179.95 234.55,158.62 234.55,179.57 232.66,179.57 232.66,154.16 233.11,154.06 249.71,175.15 
	249.71,154.44 251.62,154.44 251.62,179.87 "/>
<polygon class="st0" points="273.08,179.98 272.7,179.98 261.76,154.44 263.88,154.44 272.94,175.97 281.92,154.44 284.01,154.44 
	"/>
<polygon class="st0" points="294.14,179.57 294.14,154.44 308.34,154.44 308.34,156.16 296.07,156.16 296.07,165.96 307.14,165.96 
	307.14,167.67 296.07,167.67 296.07,177.82 308.34,177.82 308.34,179.57 "/>
<g>
	<path class="st0" d="M325.47,179.98c-2.67,0-5.07-0.9-7.27-2.33l0.93-1.68c2.02,1.37,4.25,2.27,6.51,2.27
		c3.33,0,5.55-2.13,5.55-4.91c0-2.91-1.95-4.18-5.52-5.79c-3.87-1.72-6.23-3.51-6.23-6.97c0-3.64,3.05-6.54,7.54-6.54
		c2.18,0,4.17,0.72,5.65,1.71l-0.93,1.61c-1.26-0.9-3.02-1.58-4.9-1.58c-3.36,0-5.44,2.05-5.44,4.67c0,2.7,2.12,4.01,5.17,5.41
		c4.33,1.95,6.62,3.64,6.62,7.24C333.15,177.2,329.73,179.98,325.47,179.98"/>
</g>
<polygon class="st0" points="353.12,156.16 353.12,179.57 351.17,179.57 351.17,156.16 342.62,156.16 342.62,154.44 361.62,154.44 
	361.62,156.16 "/>
<g>
	<path class="st1" d="M304.78,203.66c0-1.66-1.16-2.44-3.4-3.04c-1.76-0.48-2.35-0.94-2.35-1.87c0-0.9,0.69-1.64,2.25-1.64
		c0.95,0,1.87,0.25,2.77,0.71l0.17-0.94c-0.8-0.4-1.79-0.67-2.9-0.67c-1.95,0-3.26,1.09-3.26,2.6c0,1.51,0.95,2.23,3.02,2.79
		c2.12,0.59,2.73,1.11,2.73,2.14c0,1.15-0.97,1.81-2.44,1.81c-1.3,0-2.5-0.44-3.42-0.97l-0.19,0.97c0.88,0.48,2.18,0.88,3.51,0.88
		C303.33,206.43,304.78,205.44,304.78,203.66 M291.64,206.22l-0.15-0.8c-0.23,0.06-0.67,0.15-0.99,0.15c-1.09,0-1.55-0.4-1.55-1.55
		v-6.78h2.54l-0.13-0.84h-2.42v-3.72l-0.99,0.21v3.51h-1.53v0.84h1.53v6.95c0,1.66,0.92,2.25,2.33,2.25
		C290.84,206.43,291.38,206.32,291.64,206.22 M280.82,197.1l-0.17-0.92c-1.64,0.02-2.79,1.15-3.55,2.27l-0.32-2.06h-0.65v9.87h0.99
		v-6.49C277.8,198.45,279.2,197.21,280.82,197.1 M268.05,200.51h-5.88c0.23-2.06,1.28-3.51,3.15-3.51
		C267.05,197,267.99,198.57,268.05,200.51 M269.1,201.12c0-2.73-1.26-4.93-3.78-4.93c-2.39,0-4.2,2-4.2,5.15
		c0,3.21,1.74,5.15,4.35,5.15c1.41,0,2.71-0.63,3.61-1.45l-0.15-0.92c-0.97,0.88-2.23,1.51-3.42,1.51c-2.21,0-3.38-1.76-3.38-4.28
		h6.97V201.12z M253.67,201.09c0,3.02-1.55,4.43-3.53,4.43c-0.99,0-1.85-0.23-2.62-0.61v-6.03c0.99-1.11,1.91-1.81,3.11-1.81
		C252.39,197.08,253.67,198.49,253.67,201.09 M254.7,201.05c0-3.32-1.87-4.87-4.05-4.87c-1.43,0-2.35,0.74-3.15,1.64l-0.25-1.43
		h-0.71v13.67l0.99-0.21v-3.97c0.78,0.32,1.66,0.5,2.65,0.5C252.56,206.39,254.7,204.64,254.7,201.05 M239.75,206.18l-3.53-5.04
		l3.36-4.75h-1.09l-2.81,4.03l-2.88-4.2l-0.99,0.25l3.32,4.7l-3.53,5.08h1.09l2.96-4.37l3.13,4.51L239.75,206.18z M224.6,200.51
		h-5.88c0.23-2.06,1.28-3.51,3.15-3.51C223.6,197,224.54,198.57,224.6,200.51 M225.65,201.12c0-2.73-1.26-4.93-3.78-4.93
		c-2.39,0-4.2,2-4.2,5.15c0,3.21,1.74,5.15,4.35,5.15c1.41,0,2.71-0.63,3.61-1.45l-0.15-0.92c-0.97,0.88-2.23,1.51-3.42,1.51
		c-2.21,0-3.38-1.76-3.38-4.28h6.97V201.12z"/>
	<path class="st1" d="M188.94,197.02c-0.65-0.55-1.51-0.84-2.46-0.84c-1.85,0-3.55,1.26-3.55,3.32c0,1.36,0.74,2.39,1.83,2.92
		c-0.65,0.4-0.99,0.76-0.99,1.28c0,0.4,0.27,0.74,0.84,1.05c-1.58,0.74-2.39,1.7-2.39,2.69c0,1.66,1.89,2.56,4.41,2.56
		c2.54,0,4.6-1.11,4.6-2.9c0-1.39-1.11-2.02-3.38-2.46l-0.76-0.15c-1.87-0.36-2.31-0.55-2.31-0.99c0-0.25,0.23-0.48,0.8-0.8
		c0.29,0.06,0.63,0.1,0.95,0.1c1.91,0,3.59-1.26,3.59-3.32c0-0.76-0.23-1.43-0.65-1.95l2.1-0.23l-0.19-1.09L188.94,197.02z
		 M189.13,199.5c0,1.45-0.99,2.54-2.6,2.54c-1.6,0-2.58-1.13-2.58-2.54c0-1.47,0.99-2.54,2.54-2.54
		C188.06,196.96,189.13,198.09,189.13,199.5 M185.52,205.11c0.36,0.08,0.69,0.15,1.18,0.25l0.76,0.15c2.04,0.4,2.79,0.82,2.79,1.72
		c0,1.11-1.45,1.97-3.53,1.97c-1.93,0-3.49-0.61-3.49-1.81C183.23,206.53,183.97,205.76,185.52,205.11 M175.82,206.26v-6.95
		c0-1.97-0.97-3.13-3-3.13c-1.3,0-2.39,0.65-3.59,1.7l-0.25-1.49h-0.71v9.87h0.99v-7.39c1.24-1.15,2.37-1.79,3.46-1.79
		c1.41,0,2.12,0.82,2.12,2.31v6.87H175.82z M160.45,196.39h-0.97v9.87h0.97V196.39z M160.8,192.86c0-0.46-0.38-0.84-0.84-0.84
		s-0.86,0.38-0.86,0.84c0,0.44,0.4,0.86,0.86,0.86S160.8,193.3,160.8,192.86 M150.66,203.76c-0.97,1.09-1.91,1.81-3.11,1.81
		c-1.76,0-3.04-1.43-3.04-4.01c0-3.04,1.57-4.45,3.53-4.45c0.99,0,1.85,0.23,2.62,0.63V203.76z M151.65,206.26v-15.01l-0.99,0.21
		v5.31c-0.78-0.34-1.64-0.52-2.65-0.52c-2.39,0-4.54,1.76-4.54,5.35c0,3.32,1.87,4.87,4.05,4.87c1.43,0,2.37-0.76,3.15-1.66
		l0.25,1.45H151.65z M136.53,206.26v-6.95c0-1.97-0.97-3.13-3-3.13c-1.3,0-2.39,0.65-3.59,1.7l-0.25-1.49h-0.71v9.87h0.99v-7.39
		c1.24-1.15,2.37-1.79,3.46-1.79c1.41,0,2.12,0.82,2.12,2.31v6.87H136.53z M121.28,206.26v-9.87h-0.99v7.39
		c-1.24,1.15-2.37,1.79-3.46,1.79c-1.41,0-2.12-0.82-2.12-2.31v-6.87h-0.99v6.95c0,1.97,0.97,3.13,3,3.13c1.3,0,2.39-0.65,3.59-1.7
		l0.25,1.49H121.28z M107.51,192.19l-0.15-0.95c-0.19-0.02-0.34-0.02-0.65-0.02c-1.64,0-2.54,0.88-2.54,2.58v2.58h-1.53v0.84h1.53
		v9.03h0.97v-9.03h2.23l-0.15-0.84h-2.08v-2.54c0-1.22,0.61-1.72,1.62-1.72C107.15,192.13,107.32,192.15,107.51,192.19"/>
</g>
</svg>
