<?xml version="1.0" encoding="utf-8"?>
<!-- Generator: Adobe Illustrator 23.0.1, SVG Export Plug-In . SVG Version: 6.00 Build 0)  -->
<svg version="1.1" id="Layer_1" xmlns="http://www.w3.org/2000/svg" xmlns:xlink="http://www.w3.org/1999/xlink" x="0px" y="0px"
	 viewBox="0 0 595.28 592.95" style="enable-background:new 0 0 595.28 592.95;" xml:space="preserve">
<style type="text/css">
	.st0{fill-rule:evenodd;clip-rule:evenodd;fill:#010005;}
	.st1{fill-rule:evenodd;clip-rule:evenodd;fill:#F0F1F2;}
	.st2{fill-rule:evenodd;clip-rule:evenodd;fill:#DDDFE0;}
	.st3{fill-rule:evenodd;clip-rule:evenodd;fill:#FBFDFB;}
	.st4{fill-rule:evenodd;clip-rule:evenodd;fill:#3AABE2;}
	.st5{fill-rule:evenodd;clip-rule:evenodd;fill:#1ABCEF;}
	.st6{fill-rule:evenodd;clip-rule:evenodd;fill:#BDBFC2;}
	.st7{fill-rule:evenodd;clip-rule:evenodd;fill:#2B8ACA;}
	.st8{fill-rule:evenodd;clip-rule:evenodd;fill:#FAE900;}
	.st9{fill-rule:evenodd;clip-rule:evenodd;fill:#D4A418;}
	.st10{fill-rule:evenodd;clip-rule:evenodd;fill:#B41C09;}
	.st11{fill-rule:evenodd;clip-rule:evenodd;fill:#96C346;}
	.st12{fill-rule:evenodd;clip-rule:evenodd;fill:#E41113;}
	.st13{fill-rule:evenodd;clip-rule:evenodd;fill:#FBC200;}
	.st14{fill-rule:evenodd;clip-rule:evenodd;fill:#6BB53A;}
	.st15{fill-rule:evenodd;clip-rule:evenodd;fill:#1D8A38;}
	.st16{fill-rule:evenodd;clip-rule:evenodd;fill:#CB080D;}
	.st17{fill-rule:evenodd;clip-rule:evenodd;fill:#46AD3D;}
	.st18{fill-rule:evenodd;clip-rule:evenodd;fill:#C80A0D;}
	.st19{fill-rule:evenodd;clip-rule:evenodd;fill:#065620;}
	.st20{fill-rule:evenodd;clip-rule:evenodd;fill:#21B4E9;}
	.st21{fill-rule:evenodd;clip-rule:evenodd;fill:#31A032;}
	.st22{fill-rule:evenodd;clip-rule:evenodd;fill:#2484C7;}
	.st23{fill-rule:evenodd;clip-rule:evenodd;fill:#6E0C00;}
	.st24{fill-rule:evenodd;clip-rule:evenodd;fill:#3DA9E0;}
	.st25{fill-rule:evenodd;clip-rule:evenodd;fill:#EC6449;}
	.st26{fill-rule:evenodd;clip-rule:evenodd;fill:#E94C3C;}
	.st27{fill-rule:evenodd;clip-rule:evenodd;fill:#DFE0E0;}
	.st28{fill-rule:evenodd;clip-rule:evenodd;fill:#E3E5E6;}
	.st29{fill-rule:evenodd;clip-rule:evenodd;fill:#ACB0B2;}
	.st30{fill-rule:evenodd;clip-rule:evenodd;fill:#AFB0B4;}
	.st31{fill-rule:evenodd;clip-rule:evenodd;fill:#FFFFFF;}
	.st32{fill-rule:evenodd;clip-rule:evenodd;fill:#2281C4;}
	.st33{fill-rule:evenodd;clip-rule:evenodd;fill:#21AEE5;}
	.st34{fill-rule:evenodd;clip-rule:evenodd;fill:#339FD9;}
</style>
<path class="st0" d="M224.13,504.16c-0.57-18.37-0.07-37.52-0.07-55.97l0.01-41.88c0.1-14.25-2.56-11.42,30.62-11.42l55.76,0
	c8.51-0.01,16.8-0.02,24.93,2.94c16.84,6.15,19.59,20.32,19.63,36.5c0.04,14.88-0.88,32.06-16.4,39.41
	c-7.86,3.72-16.53,2.98-24.98,2.97l-41.89,0c-15.58-0.03-14.05-1.26-14.09,13.65c-0.01,4.62,0.19,9.18-0.05,13.8H224.13
	L224.13,504.16z M80.29,421.17c-0.37-1.38-0.37-24.92,0-26.29c36.17,0,72.35,0,108.52,0c18.31,0,19.43-1.7,19.43,7.66
	c0,2.99,0,5.97,0,8.96c0,6.83,0.77,9.02-4.96,13.31c-3.41,2.55-6.97,5-10.42,7.49l-52.44,37.98c-2.28,1.65-8.74,5.86-10.26,7.6
	c4.18,0,77.56-0.38,79.61,0.18l-0.04,26c-4.28,0.63-13.25,0.11-18.02,0.11c-12.39,0-106.7,0.41-108.55-0.3
	c-2.91-1.11-2.68-3.71-2.68-6.28c0.01-2.98,0-5.97,0-8.95c0-5.72-1-10.22,4.28-13.92c17.54-12.3,35.03-25.96,52.36-38.07
	c2.86-2,19.74-13.93,20.86-15.47L80.29,421.17L80.29,421.17z M400.55,394.95l-42.77-0.05c1.17,2.36,32.48,35.21,37.36,41.1
	c1.91,2.3,4.27,4.46,6.21,6.79c2.07,2.49,5.62,4.56,3.94,8.36c-1,2.26-45.41,46.32-51.37,52.94l44.07,0.09
	c1.56-0.1,6.41-5.97,7.56-7.4c4.25-5.26,9.83-10.33,14.2-15.55c2.19-2.61,4.66-5.23,6.96-7.78c7.37-8.2,7.91-10.32,15.98-0.35
	c4.69,5.79,9.36,9.67,14.16,15.6c1.34,1.65,13.6,15.19,14.32,15.4l44.59,0.05c-0.94-1.69-4.74-4.97-6.3-6.52
	c-2.16-2.15-4.19-4.48-6.36-6.64c-4.3-4.29-8.73-8.73-12.85-13.15c-3.32-3.56-24.91-24.98-25.68-26.6c-1.65-3.48,1.68-6.11,3.75-8.4
	l12.42-13.58c2.13-2.15,4.25-4.94,6.36-6.92c4.26-4.02,8.17-9.55,12.44-13.56l12.39-13.75c-0.32-0.11-37.51-0.42-42.02-0.16
	c-2.02,0.12-5.67,5.2-7.21,6.83c-4.51,4.78-8.74,10.3-13.3,15.01c-2.53,2.61-11.36,14.26-14.19,14.45
	c-2.62,0.18-6.12-4.46-7.68-6.44c-1.99-2.52-4.61-4.98-6.69-7.46c-2.15-2.56-4.43-5.01-6.68-7.48
	C412.38,407.81,401.82,395.27,400.55,394.95L400.55,394.95z M111.14,194.24c0.47-1.64,4.46-3.44,6.98-5.11
	c9.55-6.31,7.78-5.67,17.24-5.86c2.35-0.05,9.06-0.67,10.75,0.21c1.08,0.92,6.69,18.22,7.16,20.64c0.47,2.48-0.95,2.91-2.71,4.17
	c-2.84,2.05-9.98,7.65-12.26,8.36c-2.48,0.33-17.05,0.35-19.35-0.07L111.14,194.24L111.14,194.24z M115.36,114.91
	c0.45-2.75,3.13-3.53,5.53-4.77c6.56-3.39,12.59-6.98,19.37-10.4c2.14-1.08,4.46-2.37,6.56-3.55c2.36-1.33,4.37-2.78,6.88-0.89
	c2.32,1.74,9.48,6.8,10.9,8.69l0.55,0.63l0.62,0.86c1.35,1.9,3.32,6.47,4.49,8.81c1.48,2.96,2.93,5.86,4.46,8.83
	c1.51,2.92,2.99,5.86,4.47,8.81c1.68,3.36,4.51,6.37,0.34,8.82l-25.27,14.6c-1.55,0.89-7.11,4.8-8.38,3.79
	c-2.07-0.18-3.72-2.98-5.15-4.37c-2.8-2.74-7.49-6.3-9.19-9.59l-9.8-18.24C120.43,124.45,115.88,117.01,115.36,114.91L115.36,114.91
	z M224.21,106.72c0.92-2.71,2.76-6.48,4.01-9.14c0.7-1.49,1.42-3.06,2.07-4.58c0.62-1.45,2.19-3.55,1.2-4.88
	c-0.44-1.56-12.7-8.29-15.02-9.68c-3.19-1.92-4.7-3.58-8.6-3.69c-3.73-0.11-8.88-0.46-12.47-0.22c-2.31,0.47-2.76,3.26-3.61,5.41
	c-1.44,3.66-7.71,18.09-7.93,19.59c-0.35,2.28,2.82,3.33,4.52,4.39c2.91,1.82,15.81,10.02,17.2,10.2c1.32,1.22,6.43,0.31,8.45,0.35
	c-1.82,2.06-6.87,5.71-9.26,7.62l-18.72,15.08c-5.38,4.42-5.19,3.3-6.52,10.53c-1.75,9.53-3.48,19.07-5.19,28.6
	c-0.93,5.16-5.4,25.62-4.48,29.25l0.37,1.02c1.05,2.31,4.23,3.05,6.49,4.06l22.33,9.74c7.5,3.33,23.72,9.92,29.59,12.95l0.63,30.2
	l-1.33,0.68c-0.25-2.48-2.37-16.63-3.42-17.62c-1.14-1.47-20.5-7.97-24.82-9.53c-2.07-0.75-6.82-2.94-8.84-2.59
	c-0.91,0.49-11.59,19.33-13.58,22.79c-1.31,2.29-4.06,5.51-3.32,8.21c0.9,3.83,2.98,8.81,4.28,12.69c1.61,4.82,1.22,3.94,9.91,7.13
	l18.53,6.9c1.97,0.75,4.89,2.58,6.24,0.47c1.35-1.06,5.34-9.07,6.45-11.23c1.14-2.21,5.19-9.96,6.41-11.37l2.58,19.7l0.18,1
	l1.53,3.61c0.15,4.06,0.24,8.17,0.33,12.24c0.06,3.1-0.09,9.42,0.56,12.17c1.6,6.78,9.46,7.92,15.34,10.05
	c12.38,4.47,24.74,8.98,37.13,13.43l55.59,20.11c5.46,1.96,14.41,6.27,19.94,4.59c4.4-1.17,10.27-4.03,14.62-5.85
	c4.82-2.02,9.65-4.02,14.48-6.04l71.93-30.05c6.05-2.51,7.86-6.21,8.01-12.61c1.09-46.2,2.68-92.73,3.99-139
	c0.09-3.26,0.17-6.54,0.28-9.8c0.12-3.51,0.63-5.84-1.76-8.67c-2.37-3.82-16.78-3.79-21.32-4.15c-7.84-0.63-15.68-1.28-23.52-1.89
	c-15.69-1.21-31.42-2.46-47.1-3.77c0.11-3.31-0.14-7.05-0.24-10.41c-0.09-3.18,0.32-6.58-1.24-9.48c-2.38-4.39-5.43-9.01-8.03-13.34
	c-2.06-3.44-14.88-25.57-16.3-26.61c-1.47-3.22-7.83,0.83-9.98,1.76c-3.25,1.41-6.46,3.04-9.7,4.45l-29.16,13.33
	c-5.22,2.41-4.05,3.92-4.66,9.46c-0.41,3.78-2.84,23.25-2.59,25.37l0.29,1.08c0.73,1.95,3.01,3.9,4.05,5.91l-10.52,1.2
	c-0.74-7.16,2.13-5.7-7.98-11.25c-5.22-2.86-34.27-19.79-36.64-20.65c1.73-0.88,21.2,4.91,24.07,4.76c1.76-0.09,5.77-5.93,7.12-7.51
	c2.04-2.4,4.93-5.73,6.62-8.27l0.68-1.14c0.58-1.28-1.24-18.08-1.56-21.82c-0.28-3.39-0.28-3.69-3.52-4.52
	c-3.52-0.9-23.72-6.75-25.49-6.22c-1.97,0.65-4.34,5.14-5.7,6.92c-1.8,2.35-3.61,4.94-5.34,7.38c-2.63,3.7-1.86,3.19-1.59,10.46
	c0.14,3.93,0.51,8.37,0.4,12.23l0.17,5.13c-4.35-1.68-10.5-6.87-14.89-7.24L224.21,106.72L224.21,106.72z M90.81,71.07
	c-0.86,1.45,0.08,9.86,0.22,12.13c0.16,2.73,0.24,10.62,0.78,12.73c0.49,1.92,3.31,1.49,4.92,1.61l19.31,1.37
	c1.82-0.3,10.79-2.67,11.57-3.71c0.71-1.23-0.5-15.47-0.68-18.83l-0.26-4.93c-0.14-1.37,0.13-0.75-0.46-1.32
	c-0.73-1.12-16.08-1.66-18.3-1.81c-3.77-0.25-5.12-0.12-8.8,0.71C97.36,69.4,91.99,70.35,90.81,71.07L90.81,71.07z M167.53,69.89
	c-0.29,0.92-4.88,4.96-5.95,5.82c-1.64,1.32-4.51,5.6-6.83,3.8c-1.48-1.15-11.77-10.22-12.22-11.23c-0.12-1.71,1.34-4.47,2-6.15
	c1.01-2.55,1.23-2.83,3.25-4.55c1.41-1.2,7.61-6.8,8.66-7.12c1.36-1.01,2.69,1.33,5.18,3.39c0.9,0.75,1.46,1.51,2.36,2.25
	c0.86,0.71,1.52,1.19,2.3,2.04c1.58,1.72,4.13,2.54,3.68,5.11C169.72,64.7,168.57,69.3,167.53,69.89L167.53,69.89z M113.64,55.27
	c-2.23,2.73-15.16,10.35-18.81,12.06c-2.93,1.38-2.96,0.06-4.52-1.97c-1.53-2-9.56-12.55-9.45-13.49
	c0.8-1.84,16.55-10.37,18.92-11.98c2.84-1.69,3.03-0.69,4.63,1.56C106.52,44.47,113.63,53.35,113.64,55.27L113.64,55.27z
	 M56.49,29.28c-2.98,0.39-9.4,2.87-12.07,4.39c-13.5,7.69-13.4,23.04-13.17,36.52c0.37,22.13,0.11,44.41,0.11,66.56v332.24
	c0,11.06,0,22.11,0.06,33.17c0.05,10.39-0.97,22.79,0.34,32.88c1.13,8.62,5,15.76,12.4,20.54c8.29,5.35,18.9,4.99,28.4,4.82
	c22.12-0.39,44.42-0.11,66.56-0.11h332.24c11.06,0,22.11,0.01,33.17-0.06c19.94-0.11,42.31,4.45,53.42-12.74
	c5.36-8.29,4.98-18.9,4.82-28.41c-0.38-22.13-0.11-44.41-0.11-66.56V120.28c0-11.06,0.01-22.11-0.06-33.17
	c-0.06-10.41,0.98-22.77-0.35-32.88c-1.13-8.62-5-15.76-12.4-20.53c-8.29-5.35-18.89-4.99-28.4-4.83
	c-22.13,0.37-44.41,0.11-66.56,0.11c-110.75,0-221.49,0-332.24,0C116.49,28.99,61.16,28.66,56.49,29.28z"/>
<path class="st1" d="M255.3,193.95c-0.85,0.65-2.08,2.02-3.19,2.93l-10.13,8.35c-4.34,3.72-9.54,7.44-13.71,11.26l0.39,16.85
	l0.63,30.2c1.75-0.11,22.07-7,26.85-8.62c1.54-0.52,2.31-1.13,3.14,0.52l1.72,4.97l1.61,4.47c0.01,1.75,4.44,14.19,5.32,16.94
	c1.79,5.57,3.79,11.19,5.53,16.84c1.04,2.75-1.93,2.78-6.72,4.46c-4.58,1.61-24.89,8.94-26.96,8.75l-9.71-17.48
	c0.15,4.06,0.24,8.17,0.33,12.24c0.06,3.1-0.09,9.42,0.56,12.17c1.6,6.78,9.46,7.92,15.34,10.05c12.38,4.47,24.74,8.98,37.13,13.43
	l55.59,20.11c5.46,1.96,14.41,6.27,19.94,4.59c2.81-3.6,2.75-2.19,2.76-7.19l0.32-58.64c0-3.29,0.25-6.61,0.25-9.8l0.06-118.21
	c0-3.08-1.64-4.23-4.22-5.44c-2.83-1.33-5.91-1.42-8.61-1.46c-20.89-0.38-75.67-8.36-91.14-5.88c-0.34,1.88,0.06,3.37,0.48,5.14
	c13.21,2.86,30.03-1.41,16.31,10.84C272.4,178.79,257.04,193.22,255.3,193.95z"/>
<path class="st2" d="M246.91,160.35c-0.26,3.7,3.36,12.3,4.68,16.18c0.86,2.54,5.66,13.95,4.11,15.58l-0.4,1.84
	c1.74-0.73,17.1-15.16,19.88-17.64c13.72-12.25-3.1-7.98-16.31-10.84c-0.43-1.77-0.82-3.26-0.48-5.14
	c0.08-0.01,98.2,6.62,99.75,7.35c2.58,1.21,4.22,2.36,4.22,5.44l-0.06,118.21c0,3.19-0.25,6.51-0.25,9.8l-0.32,58.64
	c0,5,0.05,3.6-2.76,7.19c4.4-1.17,10.27-4.03,14.62-5.85c4.82-2.02,9.65-4.02,14.48-6.04l71.93-30.05
	c6.05-2.51,7.86-6.21,8.01-12.61c1.09-46.2,2.68-92.73,3.99-139c0.09-3.26,0.17-6.54,0.28-9.8c0.12-3.51,0.63-5.84-1.76-8.67
	c-4.69-0.4-9.7,0.8-14.45,1.39c-12.15,1.52-93.46,12.25-95.75,11.05c-2.48-1.3-4.47-1.86-7.21-1.71l-21.41-1.79
	c-9.59-0.61-18.92-1.57-28.55-2.36c-10.71-1.06-27.56-2.85-39.7-3.5c-7.86-0.42-4.91,0.86-6.79,1.54
	C254.31,160.42,248.37,158.03,246.91,160.35z"/>
<path class="st3" d="M80.29,421.17l77.68,0c-1.12,1.54-17.99,13.47-20.86,15.47c-17.33,12.1-34.82,25.77-52.36,38.07
	c-5.28,3.7-4.28,8.2-4.28,13.92c0,2.98,0.01,5.97,0,8.95c-0.01,2.57-0.23,5.17,2.68,6.28c1.85,0.7,96.16,0.3,108.55,0.3
	c4.77,0,13.74,0.52,18.02-0.11l0.04-26c-2.05-0.56-75.43-0.18-79.61-0.18c1.52-1.73,7.98-5.94,10.26-7.6l52.44-37.98
	c3.46-2.5,7.01-4.95,10.42-7.49c5.73-4.28,4.96-6.48,4.96-13.31c0-2.99,0-5.97,0-8.96c0-9.36-1.12-7.66-19.43-7.66
	c-36.17,0-72.35,0-108.52,0C79.92,396.25,79.92,419.79,80.29,421.17z"/>
<path class="st3" d="M320.41,439.8c-0.86,8.25-5.87,9.68-13.15,9.68c-7.51-0.01-15.02,0-22.53,0c-7.36,0-15.27,0.28-22.55,0.01
	c-4.57-0.17-4.54-3.22-4.53-6.79c0.01-3.76,0-7.51,0-11.27c0-3.07-0.86-7.24,2.33-8.86c1.81-0.92,30.17-0.45,33.42-0.45
	C310.96,422.11,322.55,419.33,320.41,439.8L320.41,439.8z M224.13,504.16h33.46c0.24-4.62,0.03-9.18,0.05-13.8
	c0.04-14.91-1.49-13.67,14.09-13.65l41.89,0c8.45,0,17.12,0.75,24.98-2.97c15.52-7.35,16.45-24.54,16.4-39.41
	c-0.04-16.18-2.79-30.35-19.63-36.5c-8.13-2.97-16.42-2.95-24.93-2.94l-55.76,0c-33.17,0-30.52-2.83-30.62,11.42l-0.01,41.88
	C224.06,466.64,223.56,485.79,224.13,504.16z"/>
<path class="st3" d="M357.78,394.9c1.17,2.36,32.48,35.21,37.36,41.1c1.91,2.3,4.27,4.46,6.21,6.79c2.07,2.49,5.62,4.56,3.94,8.36
	c-1,2.26-45.41,46.32-51.37,52.94l44.07,0.09c1.56-0.1,6.41-5.97,7.56-7.4c4.25-5.26,9.83-10.33,14.2-15.55
	c2.19-2.61,4.66-5.23,6.96-7.78c7.37-8.2,7.91-10.32,15.98-0.35c4.69,5.79,9.36,9.67,14.16,15.6c1.34,1.65,13.6,15.19,14.32,15.4
	l44.59,0.05c-0.94-1.69-4.74-4.97-6.3-6.52c-2.16-2.15-4.19-4.48-6.36-6.64c-4.3-4.29-8.73-8.73-12.85-13.15
	c-3.32-3.56-24.91-24.98-25.68-26.6c-1.65-3.48,1.68-6.11,3.75-8.4l12.42-13.58c2.13-2.15,4.25-4.94,6.36-6.92
	c4.26-4.02,8.17-9.55,12.44-13.56l12.39-13.75c-0.32-0.11-37.51-0.42-42.02-0.16c-2.02,0.12-5.67,5.2-7.21,6.83
	c-4.51,4.78-8.74,10.3-13.3,15.01c-2.53,2.61-11.36,14.26-14.19,14.45c-2.62,0.18-6.12-4.46-7.68-6.44
	c-1.99-2.52-4.61-4.98-6.69-7.46c-2.15-2.56-4.43-5.01-6.68-7.48c-1.77-1.95-12.34-14.49-13.6-14.81L357.78,394.9z"/>
<path class="st4" d="M169.88,205.57l0.37,1.02c13.41-4.2,35.57-24.14,45.81-30.78c1.04-0.53,1.22-1.54,4.02-2.53
	c1.16,0.96,0,0.6,1.9,0.82l-0.26,0.42c1.8,0.88,2.98,0.92,4.65,1.81c0.98,0.52,3.15,1.62,3.88,2.23c1.2,1.01,6.39,3.29,8.17,4.19
	c2.91,1.46,5.52,2.79,8.39,4.32c5.16,2.74,3.4,1.99,8.73,3.99l0.16,1.06c1.55-1.63-3.25-13.04-4.11-15.58
	c-1.32-3.88-4.93-12.48-4.68-16.18c-0.63-1.38,0.14-3.86,1.24-4.99c1.33-1.36,3.62-1.22,5.48-1.46c4.1-0.52,8.22-1.03,12.33-1.52
	c4.15-0.49,21.69-2.45,24.4-3.06l0.16-1.46c-0.74-7.16,2.13-5.7-7.98-11.25c-5.22-2.86-34.27-19.79-36.64-20.65l-3.08-1.94
	l-0.86-0.39l-0.21-0.26c-4.35-1.68-10.5-6.87-14.89-7.24c1.66,1.45,0.49,5.93,0.01,7.94c-0.29,1.22-0.14,2.82-0.36,4.29
	c-1.84,11.4-3.59,24.37-4.96,35.73c-0.34,2.82-0.98,10.22-1.55,12.35c-1.27,4.69,2.07,2.42-3.13,6.18l-2.67,0.42
	C201.31,180.8,184.2,196.31,169.88,205.57z"/>
<path class="st5" d="M224.21,106.72l-10.16,7.76c-1.82,2.06-6.87,5.71-9.26,7.62l-18.72,15.08c-5.38,4.42-5.19,3.3-6.52,10.53
	c-1.75,9.53-3.48,19.07-5.19,28.6c-0.93,5.16-5.4,25.62-4.48,29.25c1.23-0.62,1.95-1.27,3.25-1.88l43.99-30.84
	c5.2-3.76,1.62-1.71,2.89-6.4c0.58-2.13,1.22-9.53,1.55-12.35c1.36-11.35,3.12-24.33,4.96-35.73c0.22-1.47,0.07-3.06,0.36-4.29
	c0.48-2.01,1.65-6.49-0.01-7.94L224.21,106.72z"/>
<path class="st6" d="M373.57,148.69c-3.91,0.99-13,0.41-17.49,0.41l-53.15-0.26l-1.88-2.18l-10.52,1.2l-0.16,1.46
	c-2.71,0.6-20.25,2.57-24.4,3.06c-4.11,0.49-8.23,1-12.33,1.52c-1.85,0.24-4.15,0.09-5.48,1.46c-1.1,1.13-1.88,3.61-1.24,4.99
	c1.45-2.32,7.87,0.18,10.23-0.68c0.93-0.34,0.71-1.61,2.85-1.52c23.11,0.97,48.09,4.23,71.71,5.73l21.41,1.79
	c2.74-0.15,4.73,0.41,7.21,1.71c2.47,1.29,3.67,0.32,6.32,0.03c29.74-3.27,59.71-7.38,89.44-11.08c4.75-0.59,9.76-1.79,14.45-1.39
	c-2.37-3.82-16.78-3.79-21.32-4.15c-7.84-0.63-15.68-1.28-23.52-1.89c-15.69-1.21-31.42-2.46-47.1-3.77L373.57,148.69z"/>
<path class="st7" d="M170.25,206.59c1.05,2.31,4.23,3.05,6.49,4.06l22.33,9.74c7.5,3.33,23.72,9.92,29.59,12.95l-0.39-16.85
	c4.17-3.82,9.37-7.53,13.71-11.26l10.13-8.35c1.1-0.91,2.33-2.28,3.19-2.93l0.4-1.84l-0.16-1.06c-8.65-3.61-19.4-9.88-29.18-14.72
	c-3.74-2.43-4.76-3.26-6.33-3.53L170.25,206.59z"/>
<path class="st8" d="M296.71,139.68c1.37-0.22,55.35-24.52,55.74-24.9l0.34-29.48c-1.47-3.22-7.83,0.83-9.98,1.76
	c-3.25,1.41-6.46,3.04-9.7,4.45l-29.16,13.33c-5.22,2.41-4.05,3.92-4.66,9.46C298.88,118.08,296.46,137.55,296.71,139.68z"/>
<path class="st0" d="M320.41,439.8c2.13-20.48-9.45-17.7-27.02-17.7c-3.26,0-31.61-0.47-33.42,0.45c-3.19,1.63-2.33,5.79-2.33,8.86
	c0,3.76,0.01,7.51,0,11.27c-0.01,3.58-0.04,6.62,4.53,6.79c7.28,0.28,15.2-0.01,22.55-0.01c7.51,0,15.02-0.01,22.53,0
	C314.54,449.49,319.55,448.05,320.41,439.8z"/>
<path class="st9" d="M297,140.75c0.73,1.95,3.01,3.9,4.05,5.91l1.88,2.18l53.15,0.26c4.48,0,13.58,0.58,17.49-0.41
	c-0.51-1.53-19.75-31.51-20.66-32.31c-1.87,0.17-13.32,5.55-16.02,6.91C330.9,126.32,299.76,140.17,297,140.75z"/>
<path class="st10" d="M145.88,159.15c1.27,1,6.83-2.9,8.38-3.79l25.27-14.6c4.16-2.45,1.33-5.46-0.34-8.82
	c-1.47-2.95-2.96-5.89-4.47-8.81c-1.53-2.96-2.98-5.87-4.46-8.83c-1.17-2.34-3.14-6.91-4.49-8.81c-4.14,1.56-9.78,5.15-13.96,7.24
	c-1.24,0.62-2.41,1.22-3.63,1.87c-1.65,0.87-2.33,0.72-2.63,2.6l-3.88,27.58c-0.81,5.67-0.42,4.37,3.13,11.44
	C145.13,156.9,146.56,158.81,145.88,159.15z"/>
<path class="st11" d="M173.98,265.48c3.14,0.3,18.11,5.64,21.55,6.88c1.32,0.48,3.01,0.82,4.48,1.32c1.51,0.51,7.4,2.72,8.88,2.32
	c0.44-2.82,5.93-11.54,7.67-14.71c1.34-2.44,7.6-13.01,7.98-14.7c-1.14-1.47-20.5-7.97-24.82-9.53c-2.07-0.75-6.82-2.94-8.84-2.59
	c-0.91,0.49-11.59,19.33-13.58,22.79C176,259.56,173.25,262.78,173.98,265.48z"/>
<path class="st12" d="M229.29,263.54l-1.33,0.68c-1.24,0.41-1.57,0.31-2.39,1.4c-0.26,1.6,0.1,2.86,0.23,4.46l2.58,19.7
	c2.02-1.01,22.43-7.21,26.22-8.38c1.75-0.54,7.44-2.92,8.75-2.21c-0.13-4.01-4.79-21.97-4.05-23.76c-0.83-1.64-1.61-1.04-3.14-0.52
	C251.36,256.53,231.04,263.43,229.29,263.54z"/>
<path class="st12" d="M228.56,290.77l1.53,3.61l9.71,17.48c2.07,0.19,22.38-7.14,26.96-8.75c4.78-1.68,7.75-1.71,6.72-4.46
	c-1.39-1.13-8.64-16.57-10.13-19.46l-0.12,1c-5.65,1.87-11.47,3.66-17.12,5.38C242.96,286.53,230.91,290.73,228.56,290.77z"/>
<path class="st13" d="M296.71,139.68l0.29,1.08c4.13-0.88,32.14-13.55,39.89-17.46c2.7-1.36,14.16-6.74,16.02-6.91
	c0.92,0.8,20.15,30.78,20.66,32.31l5.02-3.56c0.11-3.31-0.14-7.05-0.24-10.41c-0.09-3.18,0.32-6.58-1.24-9.48
	c-2.38-4.39-5.43-9.01-8.03-13.34c-2.06-3.44-14.88-25.57-16.3-26.61l-0.34,29.48C352.06,115.15,298.08,139.46,296.71,139.68z"/>
<path class="st8" d="M205.6,114.13c1.07-0.47,2.44-4.63,2.95-5.84c0.85-2.01,1.82-4.21,2.65-6.29c1.1-2.76,4.99-10.69,5.27-12.91
	c-0.66-1.01-8.87-6.19-10.53-7.3c-2.23-1.49-9.27-5.68-10.51-7.25c-2.31,0.47-2.76,3.26-3.61,5.41c-1.44,3.66-7.71,18.09-7.93,19.59
	c-0.35,2.28,2.82,3.33,4.52,4.39C191.31,105.75,204.21,113.95,205.6,114.13z"/>
<path class="st14" d="M284.38,103.81c0.58-1.28-1.24-18.08-1.56-21.82c-0.28-3.39-0.28-3.69-3.52-4.52
	c-3.52-0.9-23.72-6.75-25.49-6.22c-0.37,3.98,0.76,11.56,1.15,15.8c0.15,1.64,0.53,8.86,0.24,10c1.63,0.24,4.71,1.29,6.8,1.69
	c2.59,0.5,4.99,1.15,7.52,1.78C271.74,101.08,283.03,104.3,284.38,103.81z"/>
<path class="st12" d="M115.36,114.91c1.84,1.32,11.13,9.62,12.82,10.09l0.5-0.83l-0.18-0.86c5.95-2.77,12.31-6.38,18.01-9.5
	c3.09-1.7,16.56-8.29,18.08-9.81c-1.41-1.89-8.57-6.95-10.9-8.69c-2.51-1.88-4.52-0.43-6.88,0.89c-2.1,1.18-4.42,2.47-6.56,3.55
	c-6.78,3.41-12.81,7-19.37,10.4C118.49,111.38,115.81,112.17,115.36,114.91z"/>
<path class="st14" d="M116.05,98.9l-1.12-26.19l-24.11-1.65c-0.18,0.3-0.28,0.9-0.32,1.68c-0.18,3.05,0.76,20.97,1.33,23.19
	c0.49,1.92,3.31,1.49,4.92,1.61L116.05,98.9z"/>
<path class="st15" d="M242.82,114.03l3.08,1.94c1.73-0.88,21.2,4.91,24.07,4.76c1.76-0.09,5.77-5.93,7.12-7.51
	c2.04-2.4,4.93-5.73,6.62-8.27c-4.69-1.13-9.79-1.88-14.13-3.57l-14.35-3.4C253.49,100.97,245.4,111.02,242.82,114.03z"/>
<path class="st16" d="M128.68,124.17l-0.5,0.83c-1.69-0.47-10.98-8.76-12.82-10.09c0.52,2.09,5.07,9.53,6.38,12.04l9.8,18.24
	c1.69,3.29,6.38,6.85,9.19,9.59c1.42,1.39,3.08,4.2,5.15,4.37c0.68-0.34-0.75-2.25-1.09-2.94c-3.54-7.08-3.94-5.77-3.13-11.44
	l3.88-27.58c0.3-1.87,0.98-1.72,2.63-2.6c1.22-0.65,2.39-1.25,3.63-1.87c4.18-2.09,9.82-5.68,13.96-7.24l-0.62-0.86
	C164.57,105.24,130.92,123.38,128.68,124.17z"/>
<path class="st17" d="M212.94,292.67c0.03-1.27-1.58-6.62-2.01-8.22c-0.64-2.37-1.9-6.14-2.04-8.45c-1.48,0.39-7.37-1.81-8.88-2.32
	c-1.47-0.5-3.15-0.85-4.48-1.32c-3.44-1.23-18.41-6.57-21.55-6.88c0.9,3.83,2.98,8.81,4.28,12.69c1.61,4.82,1.22,3.94,9.91,7.13
	l18.53,6.9C208.67,292.95,211.59,294.78,212.94,292.67z"/>
<path class="st18" d="M113.64,55.27c0-1.92-7.11-10.81-9.24-13.81c-1.59-2.25-1.79-3.25-4.63-1.56
	c-2.22,1.72-18.23,10.17-18.92,11.98c-0.11,0.94,7.93,11.5,9.45,13.49c1.55,2.03,1.59,3.35,4.52,1.97
	C98.48,65.62,111.41,58.01,113.64,55.27z"/>
<path class="st8" d="M138.3,216.65c-0.17-1.43-1.26-4-1.72-5.63c-0.53-1.88-1.19-3.62-1.73-5.53c-0.73-2.55-3.28-8.55-3.42-10.91
	c-1.25-0.92-2.93-0.56-4.73-0.55c-1.73,0.01-3.47,0.02-5.2,0.03c-2.85,0.02-7.76-0.24-10.35,0.18l7.81,22.35
	C121.25,217,135.82,216.98,138.3,216.65z"/>
<path class="st9" d="M131.43,194.58c0.14,2.36,2.69,8.37,3.42,10.91c0.55,1.91,1.2,3.65,1.73,5.53c0.46,1.63,1.55,4.2,1.72,5.63
	c2.28-0.71,9.42-6.31,12.26-8.36c1.76-1.27,3.18-1.69,2.71-4.17c-0.46-2.43-6.08-19.72-7.16-20.64c-0.49,1.05-14.09,9.41-14.9,9.89
	L131.43,194.58z"/>
<path class="st19" d="M208.89,276c0.14,2.32,1.4,6.08,2.04,8.45c0.43,1.61,2.04,6.95,2.01,8.22c1.35-1.06,5.34-9.07,6.45-11.23
	c1.14-2.21,5.19-9.96,6.41-11.37c-0.13-1.6-0.48-2.86-0.23-4.46c0.81-1.09,1.15-1,2.39-1.4c-0.25-2.48-2.37-16.63-3.42-17.62
	c-0.38,1.69-6.64,12.26-7.98,14.7C214.82,264.45,209.33,273.18,208.89,276z"/>
<path class="st9" d="M216.46,89.08c-0.28,2.22-4.17,10.15-5.27,12.91c-0.83,2.09-1.8,4.29-2.65,6.29c-0.51,1.21-1.88,5.37-2.95,5.84
	c1.32,1.22,6.43,0.31,8.45,0.35l10.16-7.76c0.92-2.71,2.76-6.48,4.01-9.14c0.7-1.49,1.42-3.06,2.07-4.58
	c0.62-1.45,2.19-3.55,1.2-4.88C229.84,89.55,219.17,87.39,216.46,89.08z"/>
<path class="st15" d="M114.93,72.72l1.12,26.19c1.82-0.3,10.79-2.67,11.57-3.71c0.71-1.23-0.5-15.47-0.68-18.83l-0.26-4.93
	c-0.14-1.37,0.13-0.75-0.46-1.32C125.32,70.79,116.9,72.07,114.93,72.72z"/>
<path class="st20" d="M142.53,68.29c0.45,1,10.74,10.08,12.22,11.23c2.32,1.8,5.19-2.48,6.83-3.8c1.07-0.87,5.66-4.9,5.95-5.82
	c-0.74-1.16-4.95-4.61-6.22-5.62c-1.03-0.82-2.25-1.93-3.25-2.82c-1.01-0.9-2.25-1.71-3.25-2.74c-1.54,0.48-4.82,3.59-6.3,4.8
	C147.17,64.6,143.78,67.66,142.53,68.29z"/>
<path class="st17" d="M241.59,108.25c2.11-2.64,3.13-15.12,5.3-16.84c1.81-1.43,5.75-5.16,7.07-5.97c0.41,3.07,0.4,6.64,0.63,9.78
	c0.21,2.91,0.1,2.42-3.51,6.74c-1.73,2.07-8.43,9.85-9.12,11.69l0.86,0.39c2.57-3.01,10.66-13.06,12.4-16.05l14.35,3.4
	c4.34,1.69,9.45,2.45,14.13,3.57l0.68-1.14c-1.35,0.48-12.65-2.73-14.86-3.28c-2.53-0.63-4.93-1.29-7.52-1.78
	c-2.09-0.4-5.17-1.46-6.8-1.69c0.29-1.14-0.09-8.36-0.24-10c-0.39-4.23-1.52-11.82-1.15-15.8c-1.97,0.65-4.34,5.14-5.7,6.92
	c-1.8,2.35-3.61,4.94-5.34,7.38c-2.63,3.7-1.86,3.19-1.59,10.46C241.33,99.94,241.69,104.39,241.59,108.25z"/>
<path class="st13" d="M216.46,89.08c2.7-1.7,13.38,0.47,15.04-0.96c-0.44-1.56-12.7-8.29-15.02-9.68c-3.19-1.92-4.7-3.58-8.6-3.69
	c-3.73-0.11-8.88-0.46-12.47-0.22c1.25,1.57,8.28,5.76,10.51,7.25C207.59,82.89,215.8,88.07,216.46,89.08z"/>
<path class="st13" d="M111.14,194.24c2.6-0.42,7.51-0.16,10.35-0.18c1.73-0.01,3.47-0.02,5.2-0.03c1.81-0.01,3.48-0.37,4.73,0.55
	l-0.21-1.22c0.8-0.47,14.41-8.83,14.9-9.89c-1.69-0.87-8.41-0.25-10.75-0.21c-9.47,0.19-7.69-0.45-17.24,5.86
	C115.6,190.79,111.61,192.6,111.14,194.24z"/>
<path class="st21" d="M241.59,108.25l0.17,5.13l0.21,0.26c0.7-1.84,7.39-9.61,9.12-11.69c3.61-4.32,3.72-3.82,3.51-6.74
	c-0.23-3.14-0.22-6.71-0.63-9.78c-1.32,0.82-5.26,4.55-7.07,5.97C244.71,93.13,243.69,105.61,241.59,108.25z"/>
<path class="st22" d="M154.82,58.71c1,1.03,2.25,1.83,3.25,2.74c1,0.89,2.21,2,3.25,2.82c1.27,1.01,5.48,4.46,6.22,5.62
	c1.03-0.59,2.19-5.19,2.43-6.63c0.45-2.58-2.1-3.39-3.68-5.11c-0.78-0.85-1.44-1.33-2.3-2.04c-0.9-0.75-1.46-1.51-2.36-2.25
	c-2.49-2.07-3.82-4.4-5.18-3.39l0.63,0.18L154.82,58.71z"/>
<path class="st17" d="M90.81,71.07l24.11,1.65c1.98-0.65,10.39-1.93,11.29-2.61c-0.73-1.12-16.08-1.66-18.3-1.81
	c-3.77-0.25-5.12-0.12-8.8,0.71C97.36,69.4,91.99,70.35,90.81,71.07z"/>
<path class="st23" d="M263.34,279.19c1.49,2.89,8.74,18.34,10.13,19.46c-1.74-5.65-3.74-11.28-5.53-16.84
	c-2.8-8.74-5.66-17.71-8.66-26.38C258.55,257.22,263.21,275.18,263.34,279.19z"/>
<path class="st24" d="M142.53,68.29c1.24-0.64,4.63-3.69,5.98-4.78c1.48-1.2,4.76-4.32,6.3-4.8l2.26-8.07l-0.63-0.18
	c-1.05,0.32-7.24,5.92-8.66,7.12c-2.02,1.72-2.24,2-3.25,4.55C143.87,63.82,142.42,66.58,142.53,68.29z"/>
<path class="st25" d="M228.38,289.77l0.18,1c2.35-0.04,14.4-4.24,17.54-5.2c5.65-1.72,11.47-3.51,17.12-5.38l0.12-1
	c-1.31-0.71-7,1.67-8.75,2.21C250.81,282.56,230.4,288.76,228.38,289.77z"/>
<path class="st26" d="M128.68,124.17c2.24-0.78,35.89-18.92,36.46-19.55l-0.55-0.63c-1.53,1.52-14.99,8.11-18.08,9.81
	c-5.7,3.12-12.06,6.73-18.01,9.5L128.68,124.17z"/>
<path class="st27" d="M258.68,254.45l-29.21,9.01l-0.43-26.61l13.35-11.09l22.19,18.89c2.03,2.59,2.71,5.73,1.39,9.71l-3.12,10.4
	L258.68,254.45z"/>
<path class="st28" d="M265.78,254.99l-2.93,9.78l10.92,34.28l6.15-0.78l14.39-23.05c0.95-2.53,0-4.26-1.82-5.63l-22.79-14.99
	C268.28,254.22,266.96,254.31,265.78,254.99z"/>
<polygon class="st29" points="374.17,148.59 302.93,148.85 297.9,155.87 300.24,160.55 353.37,164.97 362.39,163.93 377.73,154.83 
	378.85,145.12 "/>
<polygon class="st30" points="249.37,154.13 247.78,155.76 281.61,158.29 290.71,153.18 290.62,149.28 "/>
<path class="st31" d="M353.02,174.87l-0.35,189.55c0.61,2.77,6.14,1.89,6.54-0.61l0.17-190.33c0.02-1.94-1.15-3.03-3.21-3.47
	l-96.64-8.75c-0.5,0.58-0.48,1.19,0,1.82c31.27,3.27,60.12,6.33,91.39,9.6C352.19,172.97,352.93,173.66,353.02,174.87z"/>
<polygon class="st32" points="202.23,220.97 194.17,192.63 218.43,175.9 223.2,178.24 234.47,211.26 229.64,215.26 "/>
<path class="st33" d="M180.39,143.4l-4.07,23.49l9.36,8.84l25.65-9.45l0.52-7.54l5.98-2.17l3.73-28.69l-7.19,4.59l-6.76-6.15
	l4.42-5.63v-4.16l-28.69,22.88C181.77,140.48,180.8,141.81,180.39,143.4z"/>
<path class="st34" d="M247.49,164.54c-0.75-2.04-0.87-4.23-0.69-6.5l-10.31,21.06l19.5,10.31L247.49,164.54z"/>
<polygon class="st12" points="90.1,44.92 81.04,51.16 80.9,51.71 90.01,47.74 102.58,39.2 101.28,38.94 "/>
</svg>
